<svg width="140" height="131" viewBox="0 0 140 131" fill="none" xmlns="http://www.w3.org/2000/svg">
<path d="M98.8347 49.2194L98.1704 49.4685C97.9745 49.5115 97.8001 49.653 97.6041 49.696C96.7655 50.0866 96.2094 50.8285 95.8925 51.7245C95.5209 52.8391 95.7804 54.0219 96.4865 54.9C96.7906 55.3498 96.9204 55.9412 96.7346 56.4985C96.6251 56.9357 96.298 57.3174 95.9277 57.502C95.8297 57.5235 95.7318 57.545 95.6554 57.665C95.4594 57.708 95.2851 57.8496 95.0891 57.8926C94.2505 58.2832 93.6944 59.0251 93.3775 59.9211C93.0058 61.0357 93.2653 62.2184 93.9715 63.0966C94.2756 63.5464 94.4054 64.1378 94.2195 64.6951C94.1101 65.1323 93.783 65.514 93.4127 65.6985C93.3147 65.72 93.2167 65.7415 93.1404 65.8616C92.9444 65.9046 92.7701 66.0462 92.5741 66.0892C91.7355 66.4798 91.1794 67.2216 90.8624 68.1176C90.4908 69.2322 90.7503 70.415 91.4565 71.2931C91.7606 71.7429 91.8903 72.3343 91.7045 72.8916C91.595 73.3289 91.268 73.7106 90.8977 73.8951C90.7997 73.9166 90.7017 73.9381 90.6253 74.0582C90.5274 74.0797 90.5274 74.0797 90.4294 74.1012C90.0591 74.2857 89.8516 74.7445 90.0361 75.1172C90.1442 75.61 90.7207 75.8968 91.1889 75.6907C91.3849 75.6477 91.5593 75.5062 91.7552 75.4632C92.5938 75.0726 93.15 74.3307 93.4669 73.4347C93.8385 72.3201 93.579 71.1373 92.8728 70.2592C92.5687 69.8094 92.439 69.218 92.6248 68.6607C92.7343 68.2235 93.0613 67.8418 93.4316 67.6572C93.5296 67.6357 93.6276 67.6142 93.704 67.4942C93.8999 67.4512 94.0743 67.3096 94.2702 67.2666C95.1089 66.876 95.665 66.1341 95.9819 65.2381C96.3535 64.1235 96.094 62.9408 95.3879 62.0627C95.0838 61.6128 94.954 61.0215 95.1398 60.4642C95.2493 60.0269 95.5764 59.6452 95.9467 59.4607C96.0447 59.4392 96.1426 59.4177 96.219 59.2976C96.415 59.2546 96.5893 59.1131 96.7853 59.0701C97.6239 58.6794 98.18 57.9376 98.4969 57.0416C98.8686 55.927 98.6091 54.7442 97.9029 53.8661C97.5988 53.4163 97.469 52.8249 97.6549 52.2676C97.7643 51.8303 98.0914 51.4487 98.4617 51.2641C98.5597 51.2426 98.6577 51.2211 98.734 51.101L99.3983 50.852C99.4963 50.8305 99.4963 50.8305 99.5942 50.809C99.9646 50.6244 100.172 50.1657 99.9875 49.7929C99.803 49.4202 99.3246 49.1119 98.8347 49.2194Z" fill="#6097FD"/>
<path d="M44.9302 64.6897C45.4239 64.4414 45.5473 63.8205 45.177 63.3238C45.0536 63.0755 44.6833 62.8271 44.313 62.8271C44.0661 62.8271 43.9427 62.8272 43.8192 62.9513C42.5849 63.8205 42.2146 65.4347 42.8318 66.6764C42.9552 66.9248 42.9552 67.2973 42.8318 67.5456C42.7083 67.7939 42.4615 68.0423 42.0912 68.0423C41.1037 68.1664 40.3631 68.7873 39.8693 69.5323C39.3756 70.2773 39.3756 71.3949 39.8693 72.264C39.9928 72.5124 39.9928 72.8849 39.8693 73.1332C39.7459 73.3816 39.7459 73.6299 39.7459 73.8783C39.7459 74.1266 39.9928 74.3749 40.2396 74.4991C40.3631 74.6233 40.4865 74.6233 40.7334 74.6233C41.1037 74.6233 41.474 74.3749 41.5974 74.1266C41.9677 73.2574 41.9677 72.264 41.5974 71.519C41.474 71.2707 41.474 70.8982 41.5974 70.6498C41.7209 70.4015 41.9677 70.1532 42.338 70.1532C43.3255 70.029 44.0661 69.4081 44.5599 68.6631C45.0536 67.7939 45.0536 66.8006 44.5599 65.9314C44.4364 65.4347 44.6833 64.938 44.9302 64.6897Z" fill="#6097FD"/>
<path d="M60.9771 46.1896C60.7302 45.8171 60.2365 45.6929 59.8662 45.8171C59.7427 45.8171 59.6193 45.9412 59.6193 45.9412C58.6318 46.5621 58.0147 47.6795 57.8912 48.797C57.7678 49.9145 58.1381 51.1561 58.8787 52.0253C59.3724 52.5219 59.4959 53.1428 59.3724 53.7636C59.249 54.3844 58.7553 54.8811 58.1381 55.1294C56.9037 55.626 56.0397 56.6194 55.6694 57.9852C55.4225 59.2268 55.6694 60.5926 56.5334 61.5859C57.0272 62.0826 57.1506 62.7034 57.0272 63.3242C56.9037 63.945 56.41 64.4417 55.7928 64.69C54.5585 65.1867 53.6944 66.18 53.3241 67.5458C53.0773 68.7875 53.3241 70.1533 54.1882 71.1466C54.435 71.3949 54.8054 71.5191 55.1757 71.3949C55.2991 71.3949 55.4225 71.2707 55.546 71.1466C55.9163 70.7741 56.0397 70.1533 55.6694 69.6566C55.1757 69.1599 55.0522 68.5391 55.1757 67.9183C55.2991 67.2975 55.7928 66.8008 56.41 66.5525C57.6444 66.0558 58.5084 65.0625 58.8787 63.6967C59.1256 62.4551 58.8787 61.0893 58.0147 60.096C57.5209 59.5993 57.3975 58.9785 57.5209 58.3577C57.6444 57.7368 58.1381 57.2402 58.7553 56.9919C59.9896 56.4952 60.8537 55.5019 61.224 54.1361C61.4708 52.8944 61.224 51.5286 60.3599 50.5353C59.9896 50.1628 59.7427 49.542 59.8662 48.9212C59.9896 48.3004 60.2365 47.8037 60.7302 47.5554C60.9771 47.4312 61.1005 47.1829 61.224 46.9345C61.1005 46.6862 61.1005 46.4379 60.9771 46.1896Z" fill="url(#paint0_linear_27_1603)"/>
<path d="M86.7187 52.529C86.4718 52.1565 85.978 51.9081 85.4843 52.0323C85.3609 52.0323 85.2374 52.1565 85.2374 52.1565C83.2625 53.3982 82.6453 55.7574 83.6328 57.8683C84.0031 58.4891 83.8796 59.2341 83.5093 59.855C83.2625 60.3517 82.7687 60.7242 82.275 60.8483C82.1516 60.8483 82.0281 60.8483 81.9047 60.9725C81.6578 60.9725 81.4109 61.0967 81.1641 61.0967C80.0532 61.4692 79.0657 62.09 78.5719 63.2076C77.8313 64.4493 77.8313 66.0635 78.4485 67.3052C78.6954 67.926 78.6954 68.671 78.3251 69.2919C78.2016 69.5402 78.2016 69.9127 78.2016 70.1611C78.3251 70.4094 78.4485 70.6578 78.6954 70.7819C78.9422 70.9061 79.3126 70.9061 79.5594 70.9061C79.8063 70.7819 80.0532 70.6578 80.3 70.4094C81.0406 69.1677 81.0406 67.6777 80.4235 66.3118C80.0532 65.691 80.1766 64.9459 80.5469 64.3251C80.7938 63.8284 81.2875 63.4559 81.7813 63.3317C81.9047 63.3317 82.0281 63.3317 82.1516 63.2076C82.3984 63.2076 82.6453 63.0834 82.8922 63.0834C84.0031 62.7109 84.9906 62.09 85.6077 60.9725C86.3483 59.7308 86.3483 58.1166 85.7312 56.8749C85.2374 55.8816 85.6077 54.6399 86.5952 54.1432C86.9655 53.7707 87.089 53.0257 86.7187 52.529Z" fill="url(#paint1_linear_27_1603)"/>
<path d="M70.7804 55.7384C71.1507 55.3659 71.1507 54.6208 70.6569 54.2483C70.4101 54 70.0398 54 69.6695 54C69.4226 54 69.2992 54.1242 69.1757 54.3725C68.1882 55.49 68.1882 57.3526 69.2992 58.4701C69.546 58.7185 69.546 58.9668 69.546 59.3393C69.4226 59.7118 69.2992 59.9601 68.9289 60.0843C68.0648 60.4568 67.3242 61.326 67.0773 62.1952C66.8305 63.1886 67.2008 64.1819 67.8179 64.9269C68.0648 65.1753 68.0648 65.4236 68.0648 65.7961C68.0648 66.0445 68.0648 66.2928 68.1882 66.5411C68.3117 66.7895 68.5585 66.9136 68.8054 67.0378C68.9289 67.0378 69.1757 67.0378 69.2992 67.0378C69.6695 66.9136 69.9163 66.6653 70.0398 66.2928C70.2866 65.2994 69.9163 64.3061 69.2992 63.5611C69.0523 63.3127 69.0523 63.0644 69.0523 62.6919C69.1757 62.3194 69.2992 62.071 69.6695 61.9469C70.5335 61.5744 71.2741 60.7052 71.521 59.836C71.7679 58.8426 71.3976 57.8493 70.7804 57.1042C70.4101 56.6076 70.5335 56.1109 70.7804 55.7384Z" fill="#6097FD"/>
<path d="M81.9606 73.1328V129.752H31.7226C29.2539 129.752 27.4023 127.765 27.4023 125.406V73.1328H81.9606Z" fill="#E9EDF5"/>
<path d="M105.661 73.1328V125.406C105.661 127.889 103.686 129.752 101.341 129.752H81.8379V73.1328H105.661Z" fill="#DAE1ED"/>
<path opacity="0.2" d="M105.661 73.1328V125.406C105.661 127.889 103.686 129.752 101.341 129.752H81.8379V73.1328H105.661Z" fill="url(#paint2_linear_27_1603)"/>
<path d="M47.3989 89.0255C44.5599 88.4047 40.3631 92.8748 38.5116 94.6132C37.1538 95.8549 35.6726 97.2207 34.3148 98.5866C33.0804 99.8283 31.9695 101.443 30.2414 102.188C28.143 103.057 25.9212 102.312 23.8228 101.567C23.3291 101.443 22.9588 101.194 22.5884 101.07C20.8604 100.449 19.2557 99.7041 17.6511 98.7108C16.0464 97.7174 13.3308 95.8549 13.4543 93.6198C13.5777 91.3848 17.2807 89.3981 17.2807 89.3981L26.1681 92.6265C25.9212 92.6265 25.1806 93.1231 24.9337 93.1231C24.44 93.3715 23.9462 93.6198 23.5759 94.1165C23.3291 94.6132 23.2056 95.234 23.3291 95.7307C23.4525 95.979 23.5759 96.2274 23.6994 96.3516C23.8228 96.3516 23.9462 96.3516 24.0697 96.3516C25.0571 96.2274 26.7852 94.489 27.279 93.9923C29.5008 92.1298 32.5867 89.5222 35.796 87.908C41.1037 85.3005 42.7083 87.4113 47.3989 89.0255Z" fill="url(#paint3_linear_27_1603)"/>
<path opacity="0.5" d="M51.3488 117.087L50.3613 87.536L60.1127 85.9219L60.7299 117.832L59.6189 117.335L58.8783 111.251" fill="url(#paint4_linear_27_1603)"/>
<path d="M60.6066 129.751H50.8552C50.8552 123.047 50.8552 116.217 50.8552 109.513C50.8552 108.892 50.8552 108.395 50.8552 107.774C50.8552 105.291 50.7318 102.684 50.238 100.2C49.6209 96.5995 49.2506 92.0055 47.5225 88.9014C47.8928 89.0255 48.1396 89.1497 48.5099 89.2739C52.0896 90.2672 56.9035 92.0055 58.755 95.4821C59.6191 97.0962 59.7425 99.207 59.866 101.069C59.9894 102.559 60.1128 103.925 60.2363 105.415C60.2363 105.539 60.2363 105.788 60.2363 105.912C60.4831 109.637 60.6066 113.486 60.73 117.211C60.73 118.328 60.73 129.751 60.6066 129.751Z" fill="url(#paint5_linear_27_1603)"/>
<path opacity="0.4" d="M89.3672 107.402V89.8951L97.3905 89.3984L96.6499 114.976L93.8108 106.161L89.3672 107.402Z" fill="url(#paint6_linear_27_1603)"/>
<path opacity="0.2" d="M97.3905 114.977L96.8967 129.753H89.3672V115.473L97.3905 114.977Z" fill="url(#paint7_linear_27_1603)"/>
<path d="M139.605 95.3584C139.605 95.3584 142.074 101.567 134.668 103.429C130.841 104.422 124.422 107.278 120.596 106.037C115.905 104.547 113.684 99.9525 111.091 95.4826C109.61 92.9993 108.006 90.6402 105.29 90.1435C104.426 90.0194 103.685 90.1435 103.068 90.3919C100.846 91.3852 99.4886 94.2409 98.6246 96.4759C97.5136 99.0833 96.8965 101.939 96.8965 104.795C97.0199 109.389 98.0074 113.859 98.1308 118.453C98.1308 120.936 98.1308 123.42 97.884 125.779C97.7605 127.02 97.7605 128.759 97.0199 129.876C97.0199 129.876 97.0199 129.876 96.8965 130H89.2435C90.3544 126.275 91.9591 120.688 89.8607 111.376C88.5029 105.292 88.7498 96.4759 93.1934 91.5093C95.5387 88.7777 99.4886 87.4119 103.068 87.0394C104.303 86.9152 105.537 86.9152 106.524 87.0394C112.696 87.6602 116.276 91.3852 118.744 95.4826C121.213 99.4558 124.669 107.03 127.632 105.788C130.594 104.547 131.829 96.7242 131.829 96.7242L139.605 95.3584Z" fill="url(#paint8_linear_27_1603)"/>
<path d="M23.6994 94.1169C23.4525 94.6136 23.3291 95.2344 23.4525 95.7311C23.5759 95.9794 23.6994 96.2278 23.8228 96.3519C23.9462 96.3519 24.0697 96.3519 24.1931 96.3519L23.8228 101.567C23.3291 101.443 22.9588 101.195 22.5884 101.07C20.8604 100.45 19.2557 99.7045 17.6511 98.7112C16.0464 97.7178 13.3308 95.8553 13.4543 93.6202C13.5777 91.3852 17.2807 89.3984 17.2807 89.3984L26.1681 92.6268C25.9212 92.6268 25.1806 93.1235 24.9337 93.1235C24.44 93.2477 23.9462 93.496 23.6994 94.1169Z" fill="url(#paint9_linear_27_1603)"/>
<path d="M60.2366 105.54L50.7322 107.899C50.7322 105.416 50.6087 102.808 50.115 100.325C49.4978 96.7239 49.1275 92.1296 47.3994 89.0254C47.7697 89.1496 48.0166 89.2737 48.3869 89.3979C51.9665 90.3913 56.7805 92.1296 58.632 95.6064C59.496 97.2206 59.6195 99.3315 59.7429 101.194C59.9898 102.684 60.1132 104.05 60.2366 105.54Z" fill="url(#paint10_linear_27_1603)"/>
<path d="M49.251 51.5283C49.9327 51.5283 50.4853 50.9724 50.4853 50.2866C50.4853 49.6008 49.9327 49.0449 49.251 49.0449C48.5692 49.0449 48.0166 49.6008 48.0166 50.2866C48.0166 50.9724 48.5692 51.5283 49.251 51.5283Z" fill="url(#paint11_linear_27_1603)"/>
<path d="M51.5958 50.659L12.0966 85.1767L0 76.9818L22.0949 48.6724L32.8337 28.3094L49.9912 0L60.73 6.70487L51.5958 50.659Z" fill="#CED7E8"/>
<path d="M49.9912 0L39.6226 43.085L0 76.9818L19.1324 33.276L49.9912 0Z" fill="#E9EDF5"/>
<path d="M51.5953 50.659L39.6221 43.085L43.8189 25.4537L46.0407 16.1413L49.9906 0L60.7294 6.70487L57.1498 23.467L55.4217 32.2827L51.5953 50.659Z" fill="#DAE1ED"/>
<path d="M55.4226 32.284L44.19 25.2063L43.8197 25.4546L29.131 34.2707L25.0576 31.7873L45.7947 15.8936L46.0416 16.1419L57.1507 23.4679L55.4226 32.284Z" fill="url(#paint12_linear_27_1603)"/>
<path d="M27.1555 24.4604L30.118 18.2522L33.5742 11.5473C33.9445 10.8023 34.9319 10.4298 35.6725 10.6782L41.3506 12.6648C42.338 13.0373 42.8318 14.0306 42.338 15.0239L41.3506 17.5072C41.2271 17.7555 40.9803 18.128 40.7334 18.2522L29.2539 26.447C29.0071 26.5712 28.7602 26.8195 28.6368 27.192L24.6868 36.3802C24.5634 36.5043 24.5634 36.6285 24.44 36.7527C23.6994 37.6218 20.1197 41.9676 18.2682 46.065C16.0464 50.9074 13.5777 54.7565 12.2199 55.7498C11.973 55.9981 11.7262 56.1223 11.4793 56.2465C10.8621 56.6189 9.99808 56.6189 9.50434 56.1223L4.44351 51.9007C3.82633 51.404 3.57946 50.4107 4.0732 49.6657C4.69038 48.6724 5.55442 47.3066 6.91221 45.8167C9.50434 42.9609 14.1949 39.236 14.1949 39.236L23.4525 31.5378C23.5759 31.4136 23.8228 31.1653 23.9462 30.9169L27.1555 24.4604Z" fill="url(#paint13_linear_27_1603)"/>
<path d="M26.6617 28.0627C29.2538 26.2001 32.9569 20.6125 36.1662 18.5016C39.3755 16.3907 46.4113 13.9073 49.3737 14.404C52.4596 14.7765 56.6564 15.149 60.8532 18.5016C56.0392 19.2466 56.0392 19.2466 56.0392 19.2466L60.236 23.8409C60.236 23.8409 53.9408 19.7433 47.8925 21.6059C41.8442 23.4684 37.2771 26.3243 33.8209 28.4352C30.3648 30.5461 28.8835 31.5394 28.8835 31.5394L26.168 30.4219L26.6617 28.0627Z" fill="url(#paint14_linear_27_1603)"/>
<path d="M22.4656 31.787C22.3422 32.0353 21.9719 32.1594 21.725 32.1594C16.1704 32.5319 14.3189 32.1594 12.2205 31.5386C10.1221 30.9178 7.90029 30.4211 6.29563 31.2903C5.18472 31.787 4.0738 32.5319 3.45663 32.9044C3.08633 33.1528 2.96289 33.5253 2.96289 33.8977L3.3332 42.2167C3.3332 42.8376 3.82694 43.2101 4.44411 43.2101L9.25807 42.8376C9.38151 42.8376 9.62838 42.7134 9.75181 42.7134L19.9969 36.0085C20.1203 36.0085 20.1203 35.8844 20.2438 35.8844L24.8109 30.7936C24.9343 30.6695 24.9343 30.6695 24.9343 30.5453L28.8842 22.4746C29.1311 22.1021 29.0077 21.6055 28.7608 21.3572C27.6499 20.1155 24.8109 17.2597 23.2062 15.2731C22.0953 13.9073 21.2313 13.1623 20.6141 12.7898C20.1203 12.4173 19.5032 12.5415 19.2563 13.0382L13.0846 20.6122C12.8377 20.9847 12.8377 21.3572 12.9611 21.7297C13.3314 22.4746 14.1955 23.7163 15.9236 24.8338C18.022 26.1996 21.3547 28.3104 23.0828 29.3037C23.5765 29.6762 23.7 30.297 23.3297 30.7936L22.4656 31.787Z" fill="url(#paint15_linear_27_1603)"/>
<path d="M34.5615 65.5589L24.6867 55.8741L30.2413 31.6621L25.7977 32.5313L16.54 62.8273L26.9086 72.1397" fill="url(#paint16_linear_27_1603)"/>
<path d="M26.539 36.1324L22.2188 31.9106C22.2188 31.9106 24.0703 27.5646 25.3046 26.5713C26.7858 27.813 28.6374 31.1656 30.1186 31.5381C29.0077 34.394 27.6499 35.2632 27.6499 35.2632L26.539 36.1324Z" fill="url(#paint17_linear_27_1603)"/>
<path d="M61.7359 39.2216C61.8593 39.4699 62.1062 39.7183 62.3531 39.5941C62.4765 39.5941 62.5999 39.4699 62.7234 39.3458L63.8343 37.2349C64.0811 36.7382 64.4515 36.4898 64.9452 36.3657L67.167 35.869C67.4139 35.7448 67.6608 35.4965 67.5373 35.2482C67.5373 35.124 67.4139 34.9998 67.2905 34.8756L65.1921 33.7581C64.6983 33.5098 64.4515 33.1373 64.328 32.6406L63.8343 30.4055C63.7108 30.1572 63.464 29.9089 63.2171 30.033C63.0937 30.033 62.9702 30.1572 62.8468 30.2814L61.7359 32.3923C61.489 32.8889 61.1187 33.1373 60.625 33.2614L58.4031 33.7581C58.1563 33.8823 57.9094 34.1306 58.0328 34.379C58.0328 34.5031 58.1563 34.6273 58.2797 34.7515L60.3781 35.869C60.8718 36.1173 61.1187 36.4898 61.2421 36.9865L61.7359 39.2216Z" fill="url(#paint18_linear_27_1603)"/>
<path d="M98.7359 36.2216C98.8593 36.4699 99.1062 36.7183 99.3531 36.5941C99.4765 36.5941 99.5999 36.4699 99.7234 36.3458L100.834 34.2349C101.081 33.7382 101.451 33.4898 101.945 33.3657L104.167 32.869C104.414 32.7448 104.661 32.4965 104.537 32.2482C104.537 32.124 104.414 31.9998 104.29 31.8756L102.192 30.7581C101.698 30.5098 101.451 30.1373 101.328 29.6406L100.834 27.4055C100.711 27.1572 100.464 26.9089 100.217 27.033C100.094 27.033 99.9702 27.1572 99.8468 27.2814L98.7359 29.3922C98.489 29.8889 98.1187 30.1373 97.625 30.2614L95.4031 30.7581C95.1563 30.8823 94.9094 31.1306 95.0328 31.379C95.0328 31.5031 95.1563 31.6273 95.2797 31.7515L97.3781 32.869C97.8718 33.1173 98.1187 33.4898 98.2421 33.9865L98.7359 36.2216Z" fill="url(#paint19_linear_27_1603)"/>
<path d="M85.664 42.0923C85.5406 42.3406 85.664 42.589 85.9109 42.7131C86.0344 42.7131 86.1578 42.7131 86.2812 42.7131L88.0093 41.5956C88.3796 41.3473 88.8734 41.3473 89.2437 41.4714L91.2186 42.0923C91.4655 42.2164 91.7124 42.0923 91.8358 41.8439C91.8358 41.7198 91.8358 41.5956 91.8358 41.4714L90.7249 39.733C90.478 39.3605 90.478 38.8639 90.6014 38.4914L91.2186 36.5046C91.3421 36.2563 91.2186 36.008 90.9717 35.8838C90.8483 35.8838 90.7249 35.8838 90.6014 35.8838L88.8734 37.0013C88.5031 37.2497 88.0093 37.2497 87.639 37.1255L85.664 36.5046C85.4172 36.3805 85.1703 36.6288 85.0469 36.753C85.0469 36.8771 85.0469 37.0013 85.0469 37.1255L86.1578 38.8639C86.4047 39.2364 86.4047 39.733 86.2812 40.1056L85.664 42.0923Z" fill="#6097FD"/>
<path d="M69.6172 48.836C69.4937 49.0843 69.6172 49.3327 69.864 49.3327C69.9875 49.3327 70.1109 49.3327 70.2343 49.3327L71.839 48.3393C72.2093 48.091 72.5796 48.091 72.9499 48.2151L74.8014 48.7118C75.0483 48.836 75.2952 48.7118 75.2952 48.4635C75.2952 48.3393 75.2952 48.2151 75.2952 48.091L74.3077 46.4767C74.0608 46.1042 74.0608 45.7317 74.1843 45.3592L74.678 43.4967C74.8014 43.2483 74.678 43 74.4311 43C74.3077 43 74.1843 43 74.0608 43L72.4562 43.9934C72.0859 44.2417 71.7156 44.2417 71.3453 44.1175L69.4937 43.6208C69.2469 43.4967 69 43.6208 69 43.8692C69 43.9934 69 44.1175 69 44.2417L69.9875 45.8559C70.2343 46.2284 70.2343 46.6009 70.1109 46.9734L69.6172 48.836Z" fill="#6097FD"/>
<path d="M83.6172 26.836C83.4937 27.0843 83.6172 27.3327 83.864 27.3327C83.9875 27.3327 84.1109 27.3327 84.2343 27.3327L85.839 26.3393C86.2093 26.091 86.5796 26.091 86.9499 26.2151L88.8014 26.7118C89.0483 26.836 89.2952 26.7118 89.2952 26.4635C89.2952 26.3393 89.2952 26.2151 89.2952 26.091L88.3077 24.4767C88.0608 24.1042 88.0608 23.7317 88.1843 23.3592L88.678 21.4967C88.8014 21.2483 88.678 21 88.4311 21C88.3077 21 88.1843 21 88.0608 21L86.4562 21.9934C86.0859 22.2417 85.7156 22.2417 85.3453 22.1175L83.4937 21.6208C83.2469 21.4967 83 21.6208 83 21.8692C83 21.9934 83 22.1175 83 22.2417L83.9875 23.8559C84.2343 24.2284 84.2343 24.6009 84.1109 24.9734L83.6172 26.836Z" fill="#6097FD"/>
<path d="M99.864 47.0777C99.7406 47.326 99.9875 47.5744 100.234 47.6985C100.358 47.6985 100.481 47.6985 100.605 47.6985L102.58 46.4568C102.95 46.2085 103.444 46.0843 103.937 46.2085L106.159 46.8293C106.406 46.9535 106.653 46.7052 106.776 46.4568C106.776 46.3327 106.776 46.2085 106.776 46.0843L105.542 44.0976C105.172 43.8493 105.172 43.2284 105.295 42.8559L105.912 40.6208C106.036 40.3725 105.789 40.1242 105.542 40C105.419 40 105.295 40 105.172 40L103.197 41.2417C102.826 41.49 102.333 41.6142 101.839 41.49L99.6172 40.8692C99.3703 40.745 99.1234 40.9934 99 41.2417C99 41.3659 99 41.49 99 41.6142L100.234 43.6009C100.481 43.9734 100.605 44.4701 100.481 44.9668L99.864 47.0777Z" fill="#6097FD"/>
<path d="M73.864 37.0777C73.7406 37.326 73.9875 37.5744 74.2343 37.6985C74.3578 37.6985 74.4812 37.6985 74.6047 37.6985L76.5796 36.4568C76.9499 36.2085 77.4437 36.0843 77.9374 36.2085L80.1592 36.8293C80.4061 36.9535 80.653 36.7052 80.7764 36.4568C80.7764 36.3327 80.7764 36.2085 80.7764 36.0843L79.5421 34.0976C79.1718 33.8493 79.1717 33.2284 79.2952 32.8559L79.9124 30.6208C80.0358 30.3725 79.7889 30.1242 79.5421 30C79.4186 30 79.2952 30 79.1717 30L77.1968 31.2417C76.8265 31.49 76.3327 31.6142 75.839 31.49L73.6172 30.8692C73.3703 30.745 73.1234 30.9934 73 31.2417C73 31.3659 73 31.49 73 31.6142L74.2343 33.6009C74.4812 33.9734 74.6047 34.4701 74.4812 34.9668L73.864 37.0777Z" fill="url(#paint20_linear_27_1603)"/>
<path d="M13.3311 129.752H124.423" stroke="#B1B9CC" stroke-width="2" stroke-miterlimit="10" stroke-linecap="round" stroke-linejoin="round"/>
<path d="M4.32031 129.752H9.01084" stroke="#B1B9CC" stroke-width="2" stroke-miterlimit="10" stroke-linecap="round" stroke-linejoin="round"/>
<defs>
<linearGradient id="paint0_linear_27_1603" x1="50.8924" y1="60.4152" x2="63.9077" y2="56.8709" gradientUnits="userSpaceOnUse">
<stop stop-color="#FF66A9"/>
<stop offset="1" stop-color="#F53689"/>
</linearGradient>
<linearGradient id="paint1_linear_27_1603" x1="79.1622" y1="70.5159" x2="85.0897" y2="58.2831" gradientUnits="userSpaceOnUse">
<stop stop-color="#FF66A9"/>
<stop offset="1" stop-color="#F53689"/>
</linearGradient>
<linearGradient id="paint2_linear_27_1603" x1="94.5748" y1="103.033" x2="107.933" y2="128.979" gradientUnits="userSpaceOnUse">
<stop offset="0.00289017" stop-color="#606673" stop-opacity="0"/>
<stop offset="1" stop-color="#373C47"/>
</linearGradient>
<linearGradient id="paint3_linear_27_1603" x1="13.483" y1="94.6588" x2="47.3702" y2="94.6588" gradientUnits="userSpaceOnUse">
<stop stop-color="#FF66A9"/>
<stop offset="1" stop-color="#F53689"/>
</linearGradient>
<linearGradient id="paint4_linear_27_1603" x1="55.1357" y1="86.4533" x2="56.1282" y2="111.755" gradientUnits="userSpaceOnUse">
<stop offset="0.00289017" stop-color="#606673" stop-opacity="0"/>
<stop offset="1" stop-color="#373C47"/>
</linearGradient>
<linearGradient id="paint5_linear_27_1603" x1="52.3238" y1="106.43" x2="46.3329" y2="91.0299" gradientUnits="userSpaceOnUse">
<stop stop-color="#FF66A9"/>
<stop offset="1" stop-color="#F53689"/>
</linearGradient>
<linearGradient id="paint6_linear_27_1603" x1="93.0431" y1="89.8139" x2="93.8377" y2="110.068" gradientUnits="userSpaceOnUse">
<stop offset="0.00289017" stop-color="#606673" stop-opacity="0"/>
<stop offset="1" stop-color="#373C47"/>
</linearGradient>
<linearGradient id="paint7_linear_27_1603" x1="93.0941" y1="115.301" x2="93.5546" y2="127.043" gradientUnits="userSpaceOnUse">
<stop offset="0.00289017" stop-color="#606673" stop-opacity="0"/>
<stop offset="1" stop-color="#373C47"/>
</linearGradient>
<linearGradient id="paint8_linear_27_1603" x1="89.244" y1="108.27" x2="140.001" y2="108.27" gradientUnits="userSpaceOnUse">
<stop stop-color="#FF66A9"/>
<stop offset="1" stop-color="#F53689"/>
</linearGradient>
<linearGradient id="paint9_linear_27_1603" x1="22.418" y1="90.8901" x2="17.8829" y2="98.5263" gradientUnits="userSpaceOnUse">
<stop stop-color="#FF66A9" stop-opacity="0"/>
<stop offset="0.4964" stop-color="#FF8FC0"/>
<stop offset="1" stop-color="#F53689" stop-opacity="0"/>
</linearGradient>
<linearGradient id="paint10_linear_27_1603" x1="55.9567" y1="105.017" x2="49.9652" y2="89.6169" gradientUnits="userSpaceOnUse">
<stop stop-color="#FF66A9"/>
<stop offset="1" stop-color="#F53689"/>
</linearGradient>
<linearGradient id="paint11_linear_27_1603" x1="49.1495" y1="49.0139" x2="49.2874" y2="51.58" gradientUnits="userSpaceOnUse">
<stop stop-color="#83A6FF"/>
<stop offset="1" stop-color="#5A78FF"/>
</linearGradient>
<linearGradient id="paint12_linear_27_1603" x1="47.3537" y1="17.0081" x2="39.2176" y2="33.9917" gradientUnits="userSpaceOnUse">
<stop stop-color="#FF66A9"/>
<stop offset="1" stop-color="#F53689"/>
</linearGradient>
<linearGradient id="paint13_linear_27_1603" x1="7.9283" y1="54.9441" x2="38.8048" y2="10.9245" gradientUnits="userSpaceOnUse">
<stop stop-color="#FF66A9"/>
<stop offset="1" stop-color="#F53689"/>
</linearGradient>
<linearGradient id="paint14_linear_27_1603" x1="35.8227" y1="36.9772" x2="52.8024" y2="12.7708" gradientUnits="userSpaceOnUse">
<stop stop-color="#FF66A9"/>
<stop offset="1" stop-color="#F53689"/>
</linearGradient>
<linearGradient id="paint15_linear_27_1603" x1="-32.6918" y1="-35.8163" x2="-13.7496" y2="-9.89654" gradientUnits="userSpaceOnUse">
<stop stop-color="#FF66A9"/>
<stop offset="1" stop-color="#F53689"/>
</linearGradient>
<linearGradient id="paint16_linear_27_1603" x1="18.8823" y1="71.3043" x2="32.0424" y2="45.7392" gradientUnits="userSpaceOnUse">
<stop stop-color="#FF66A9"/>
<stop offset="1" stop-color="#F53689"/>
</linearGradient>
<linearGradient id="paint17_linear_27_1603" x1="24.2216" y1="34.5463" x2="28.301" y2="28.7307" gradientUnits="userSpaceOnUse">
<stop stop-color="#FF66A9"/>
<stop offset="1" stop-color="#F53689"/>
</linearGradient>
<linearGradient id="paint18_linear_27_1603" x1="59.9664" y1="37.0664" x2="65.549" y2="32.7053" gradientUnits="userSpaceOnUse">
<stop stop-color="#FF66A9"/>
<stop offset="1" stop-color="#F53689"/>
</linearGradient>
<linearGradient id="paint19_linear_27_1603" x1="96.9196" y1="33.9922" x2="102.502" y2="29.6312" gradientUnits="userSpaceOnUse">
<stop stop-color="#FF66A9"/>
<stop offset="1" stop-color="#F53689"/>
</linearGradient>
<linearGradient id="paint20_linear_27_1603" x1="74.5598" y1="35.5915" x2="79.0408" y2="32.0345" gradientUnits="userSpaceOnUse">
<stop stop-color="#FF66A9"/>
<stop offset="1" stop-color="#F53689"/>
</linearGradient>
</defs>
</svg>
