<svg width="121" height="106" viewBox="0 0 121 106" fill="none" xmlns="http://www.w3.org/2000/svg">
<path d="M93.2666 95.9607C93.6291 95.7782 93.8104 95.5956 94.1729 95.4131" stroke="#FF78B7" stroke-width="0.6123" stroke-linecap="round" stroke-linejoin="round"/>
<path d="M97.7982 92.8576C100.698 90.6672 103.599 88.4768 105.955 85.7388C109.581 81.7231 112.3 76.4296 112.118 70.9536C112.118 67.1204 110.668 63.4697 109.218 59.8191C107.768 56.351 106.137 52.7003 105.593 48.8671C105.049 45.0339 105.593 40.8356 108.312 38.0976C109.943 36.2723 112.843 35.3596 115.019 37.185C115.744 37.9151 116.288 38.8278 116.65 39.923C119.913 50.6924 105.411 57.4462 96.7106 55.4383C92.5414 54.3431 88.5535 51.9702 85.2906 49.2322C78.4024 43.5736 73.5081 38.4627 70.6078 29.8837C68.0701 22.5823 66.4386 14.5509 61.0006 8.52727C42.8737 -11.5514 7.16369 12.3605 6.98242 35.5422C6.98242 48.6846 15.1395 61.8269 27.4658 65.6601C33.4477 67.4855 39.9734 67.1204 46.3178 66.7553C49.3994 66.5728 52.4809 66.3903 55.7438 66.2077" stroke="#FF78B7" stroke-linecap="round" stroke-linejoin="round" stroke-dasharray="1.22 4"/>
<path d="M57.7383 66.3904C58.1008 66.3904 58.4634 66.3904 58.8259 66.3904" stroke="#FF78B7" stroke-width="0.6123" stroke-linecap="round" stroke-linejoin="round"/>
<path d="M10.7891 103.992H118.1" stroke="#B1B9CC" stroke-width="2" stroke-miterlimit="10" stroke-linecap="round" stroke-linejoin="round"/>
<path d="M1 103.992H5.35046" stroke="#B1B9CC" stroke-width="2" stroke-miterlimit="10" stroke-linecap="round" stroke-linejoin="round"/>
<path d="M89.8217 11.9954H65.7129V39.3753H89.8217V11.9954Z" fill="#B4C2D1"/>
<path d="M89.8214 11.9954H73.6885V39.3753H89.8214V11.9954Z" fill="url(#paint0_linear_27_1641)"/>
<path d="M69 6H32V48H69V6Z" fill="url(#paint1_linear_27_1641)"/>
<path d="M69 6H44V48H69V6Z" fill="url(#paint2_linear_27_1641)"/>
<path d="M4.44378 66.3903C5.71267 66.3903 6.61901 65.4777 6.61901 64.1999C6.61901 62.9222 5.71267 62.0095 4.44378 62.0095C3.1749 62.0095 2.26855 62.9222 2.26855 64.1999C2.26855 65.4777 3.35617 66.3903 4.44378 66.3903Z" fill="url(#paint3_linear_27_1641)"/>
<path d="M103.236 14.0033C104.324 14.0033 105.23 13.0906 105.23 11.9954C105.23 10.9002 104.324 9.98755 103.236 9.98755C102.149 9.98755 101.242 10.9002 101.242 11.9954C101.242 13.0906 102.149 14.0033 103.236 14.0033Z" fill="url(#paint4_linear_27_1641)"/>
<path d="M119.55 31.8915C120.275 31.8915 121 31.1613 121 30.4312C121 29.7011 120.275 28.9709 119.55 28.9709C118.825 28.9709 118.1 29.7011 118.1 30.4312C118.1 31.1613 118.825 31.8915 119.55 31.8915Z" fill="url(#paint5_linear_27_1641)"/>
<path d="M100.879 17.6538H15.6826V103.079H100.879V17.6538Z" fill="white"/>
<path d="M101.06 17.6538H39.4287V103.079H101.06V17.6538Z" fill="#E6ECF5"/>
<path d="M27.4651 17.6538H15.6826V103.079H27.4651V17.6538Z" fill="url(#paint6_linear_27_1641)"/>
<path d="M39.4289 103.079H15.6826V102.897L27.6464 91.0322L39.4289 103.079Z" fill="#E6ECF5"/>
<path d="M54.2925 36.6373C55.9944 36.6373 57.3741 35.248 57.3741 33.5342C57.3741 31.8204 55.9944 30.4312 54.2925 30.4312C52.5906 30.4312 51.2109 31.8204 51.2109 33.5342C51.2109 35.248 52.5906 36.6373 54.2925 36.6373Z" fill="#B4C2D1"/>
<path d="M84.7456 36.6373C86.4475 36.6373 87.8272 35.248 87.8272 33.5342C87.8272 31.8204 86.4475 30.4312 84.7456 30.4312C83.0437 30.4312 81.6641 31.8204 81.6641 33.5342C81.6641 35.248 83.0437 36.6373 84.7456 36.6373Z" fill="#B4C2D1"/>
<path d="M84.7452 33.7168V42.1133C84.7452 50.6924 77.857 57.4461 69.5186 57.4461C60.9989 57.4461 54.292 50.5098 54.292 42.1133V33.7168" stroke="white" stroke-width="1.8941" stroke-miterlimit="10" stroke-linecap="round" stroke-linejoin="round"/>
<path opacity="0.7" d="M99.2473 97.4211L53.0238 106C52.2987 105.635 51.7549 104.722 51.7549 103.81V76.0647C51.7549 74.6045 52.8425 73.5093 54.2926 73.5093H96.7096L99.2473 97.4211Z" fill="url(#paint7_linear_27_1641)"/>
<path d="M111.574 74.7869V102.349C111.574 103.81 110.486 104.905 109.036 104.905H64.2624C62.8122 104.905 61.7246 103.81 61.7246 102.349V74.7869C61.7246 73.3266 62.8122 72.2314 64.2624 72.2314H109.036C110.486 72.2314 111.574 73.3266 111.574 74.7869Z" fill="url(#paint8_linear_27_1641)"/>
<path d="M111.574 79.1677H61.7246V85.1913H111.574V79.1677Z" fill="#526DFF"/>
<path d="M90.7281 95.7782H86.1964C85.6526 95.7782 85.29 95.4131 85.29 94.8655C85.29 94.3179 85.6526 93.9529 86.1964 93.9529H90.7281C91.2719 93.9529 91.6345 94.3179 91.6345 94.8655C91.4532 95.4131 91.0906 95.7782 90.7281 95.7782Z" fill="white"/>
<path d="M83.2957 95.7782H67.8878C67.344 95.7782 66.9814 95.4131 66.9814 94.8655C66.9814 94.3179 67.344 93.9529 67.8878 93.9529H83.2957C83.8395 93.9529 84.202 94.3179 84.202 94.8655C84.202 95.4131 83.6582 95.7782 83.2957 95.7782Z" fill="white"/>
<path d="M74.776 99.2462H67.8878C67.344 99.2462 66.9814 98.8812 66.9814 98.3336C66.9814 97.786 67.344 97.4209 67.8878 97.4209H74.776C75.3198 97.4209 75.6824 97.786 75.6824 98.3336C75.6824 98.8812 75.3198 99.2462 74.776 99.2462Z" fill="white"/>
<path d="M104.323 101.619C106.125 101.619 107.586 100.148 107.586 98.3337C107.586 96.5191 106.125 95.0481 104.323 95.0481C102.521 95.0481 101.061 96.5191 101.061 98.3337C101.061 100.148 102.521 101.619 104.323 101.619Z" fill="#526DFF"/>
<path d="M99.9728 101.619C101.775 101.619 103.236 100.148 103.236 98.3337C103.236 96.5191 101.775 95.0481 99.9728 95.0481C98.1708 95.0481 96.71 96.5191 96.71 98.3337C96.71 100.148 98.1708 101.619 99.9728 101.619Z" fill="white"/>
<defs>
<linearGradient id="paint0_linear_27_1641" x1="73.7762" y1="25.6457" x2="89.8381" y2="25.6457" gradientUnits="userSpaceOnUse">
<stop offset="0.00289017" stop-color="#E6ECF5"/>
<stop offset="1" stop-color="#CED7E2"/>
</linearGradient>
<linearGradient id="paint1_linear_27_1641" x1="50.6273" y1="5.14718" x2="50.6273" y2="50.6495" gradientUnits="userSpaceOnUse">
<stop stop-color="#FF66A9"/>
<stop offset="1" stop-color="#F53689"/>
</linearGradient>
<linearGradient id="paint2_linear_27_1641" x1="57.652" y1="45.1513" x2="55.239" y2="1.69878" gradientUnits="userSpaceOnUse">
<stop stop-color="#FF66A9"/>
<stop offset="1" stop-color="#F53689"/>
</linearGradient>
<linearGradient id="paint3_linear_27_1641" x1="2.38855" y1="64.2143" x2="6.54632" y2="64.2143" gradientUnits="userSpaceOnUse">
<stop stop-color="#FF66A9"/>
<stop offset="1" stop-color="#F53689"/>
</linearGradient>
<linearGradient id="paint4_linear_27_1641" x1="101.202" y1="11.9355" x2="105.243" y2="11.9355" gradientUnits="userSpaceOnUse">
<stop stop-color="#83A6FF"/>
<stop offset="1" stop-color="#5A78FF"/>
</linearGradient>
<linearGradient id="paint5_linear_27_1641" x1="118.086" y1="30.3301" x2="120.951" y2="30.3301" gradientUnits="userSpaceOnUse">
<stop stop-color="#FF66A9"/>
<stop offset="1" stop-color="#F53689"/>
</linearGradient>
<linearGradient id="paint6_linear_27_1641" x1="21.6592" y1="19.9305" x2="21.6592" y2="101.829" gradientUnits="userSpaceOnUse">
<stop offset="0.00289017" stop-color="#E6ECF5"/>
<stop offset="1" stop-color="#CED7E2"/>
</linearGradient>
<linearGradient id="paint7_linear_27_1641" x1="56.0827" y1="85.1355" x2="96.9935" y2="95.1221" gradientUnits="userSpaceOnUse">
<stop offset="0.00289017" stop-color="#606673" stop-opacity="0"/>
<stop offset="1" stop-color="#373C47"/>
</linearGradient>
<linearGradient id="paint8_linear_27_1641" x1="83.0674" y1="86.0556" x2="112.357" y2="106.258" gradientUnits="userSpaceOnUse">
<stop stop-color="#83A6FF"/>
<stop offset="1" stop-color="#5A78FF"/>
</linearGradient>
</defs>
</svg>
