<svg width="112" height="134" viewBox="0 0 112 134" fill="none" xmlns="http://www.w3.org/2000/svg">
<path d="M87.2842 118.961C87.6467 118.778 87.828 118.596 88.1905 118.413" stroke="#FF78B7" stroke-width="0.6123" stroke-linecap="round" stroke-linejoin="round"/>
<path d="M91.8158 115.858C94.7161 113.667 97.6164 111.477 99.9729 108.739C103.598 104.723 106.317 99.4296 106.136 93.9536C106.136 90.1204 104.686 86.4697 103.236 82.8191C101.786 79.351 100.154 75.7003 99.6103 71.8671C99.0665 68.0339 99.6103 63.8356 102.329 61.0976C103.961 59.2723 106.861 58.3596 109.036 60.185C109.761 60.9151 110.305 61.8278 110.668 62.923C113.931 73.6924 99.429 80.4462 90.7281 78.4383C86.5589 77.3431 82.571 74.9702 79.3082 72.2322C72.42 66.5736 67.5257 61.4627 64.6254 52.8837C62.0876 45.5823 60.4562 37.5509 55.0181 31.5273C36.8913 11.4486 1.18127 35.3605 1 58.5422C1 71.6846 9.1571 84.8269 21.4834 88.6601C27.4653 90.4855 33.991 90.1204 40.3354 89.7553C43.4169 89.5728 46.4985 89.3903 49.7614 89.2077" stroke="#FF78B7" stroke-linecap="round" stroke-linejoin="round" stroke-dasharray="1.22 4"/>
<path d="M51.7559 89.3901C52.1184 89.3901 52.4809 89.3901 52.8435 89.3901" stroke="#FF78B7" stroke-width="0.6123" stroke-linecap="round" stroke-linejoin="round"/>
<path d="M100.175 42.3808C101.444 42.3808 102.35 41.4681 102.35 40.1904C102.35 38.9127 101.444 38 100.175 38C98.9063 38 98 38.9127 98 40.1904C98 41.4681 99.0876 42.3808 100.175 42.3808Z" fill="url(#paint0_linear_87_9046)"/>
<path d="M10.994 95.0157C12.0816 95.0157 12.9879 94.1031 12.9879 93.0079C12.9879 91.9127 12.0816 91 10.994 91C9.90635 91 9 91.9127 9 93.0079C9 94.1031 9.90635 95.0157 10.994 95.0157Z" fill="url(#paint1_linear_87_9046)"/>
<g clip-path="url(#clip0_87_9046)">
<path d="M84.5175 0H34.4825C29.7977 0 26 3.78078 26 8.44461V125.555C26 130.219 29.7977 134 34.4825 134H84.5175C89.2023 134 93 130.219 93 125.555V8.44461C93 3.78078 89.2023 0 84.5175 0Z" fill="#DAE1ED"/>
<path d="M91.3057 9.92387V126.569C91.3057 129.279 89.1015 131.465 86.3881 131.465H32.6128C29.8994 131.465 27.6953 129.279 27.6953 126.569V9.92387C27.6953 9.26725 27.8205 8.64388 28.0543 8.07869L28.1211 7.93739C28.8892 6.21688 30.6174 5.02832 32.6128 5.02832H86.3881C88.3835 5.02832 90.1118 6.21688 90.8799 7.92908L90.9467 8.07869C91.1804 8.64388 91.3057 9.26725 91.3057 9.92387Z" fill="#E6ECF5"/>
<path d="M59.7546 3.02567H56.7323C56.4651 3.02567 56.248 2.80957 56.248 2.5436C56.248 2.27763 56.4651 2.06152 56.7323 2.06152H59.7546C60.0218 2.06152 60.2388 2.27763 60.2388 2.5436C60.2388 2.80957 60.0218 3.02567 59.7546 3.02567ZM62.7435 2.5436C62.7435 2.27763 62.5264 2.06152 62.2593 2.06152H61.8752C61.608 2.06152 61.391 2.27763 61.391 2.5436C61.391 2.80957 61.608 3.02567 61.8752 3.02567H62.2593C62.5264 3.02567 62.7435 2.80957 62.7435 2.5436Z" fill="#D9E3F7"/>
<path d="M68.0699 10.9711H50.9295C50.0112 10.9711 49.2598 10.2231 49.2598 9.30881C49.2598 8.39453 50.0112 7.64648 50.9295 7.64648H68.0699C68.9882 7.64648 69.7396 8.39453 69.7396 9.30881C69.7396 10.2231 68.9882 10.9711 68.0699 10.9711Z" fill="white"/>
<rect x="33" y="35" width="54" height="10" rx="5" fill="#7CA8FB"/>
<rect x="46" y="53" width="28" height="8" rx="4" fill="#FE5FA5"/>
<path d="M39.125 31.0994C38.59 31.0994 38.1342 30.9538 37.7578 30.6626C37.3814 30.3691 37.0938 29.9441 36.8949 29.3878C36.696 28.8291 36.5966 28.1544 36.5966 27.3636C36.5966 26.5777 36.696 25.9065 36.8949 25.3501C37.0961 24.7914 37.3849 24.3653 37.7614 24.0717C38.1402 23.7758 38.5947 23.6278 39.125 23.6278C39.6553 23.6278 40.1087 23.7758 40.4851 24.0717C40.8639 24.3653 41.1527 24.7914 41.3516 25.3501C41.5528 25.9065 41.6534 26.5777 41.6534 27.3636C41.6534 28.1544 41.554 28.8291 41.3551 29.3878C41.1562 29.9441 40.8686 30.3691 40.4922 30.6626C40.1158 30.9538 39.66 31.0994 39.125 31.0994ZM39.125 30.3182C39.6553 30.3182 40.0672 30.0625 40.3608 29.5511C40.6544 29.0398 40.8011 28.3106 40.8011 27.3636C40.8011 26.7339 40.7337 26.1977 40.5987 25.755C40.4661 25.3123 40.2744 24.9749 40.0234 24.7429C39.7749 24.5109 39.4754 24.3949 39.125 24.3949C38.5994 24.3949 38.1887 24.6541 37.8928 25.1726C37.5968 25.6887 37.4489 26.419 37.4489 27.3636C37.4489 27.9934 37.5152 28.5284 37.6477 28.9688C37.7803 29.4091 37.9709 29.7441 38.2195 29.9737C38.4704 30.2034 38.7723 30.3182 39.125 30.3182ZM45.3182 23.6278C45.6165 23.6302 45.9148 23.687 46.2131 23.7983C46.5114 23.9096 46.7836 24.0942 47.0298 24.3523C47.276 24.608 47.4737 24.9571 47.6229 25.3999C47.772 25.8426 47.8466 26.3977 47.8466 27.0653C47.8466 27.7116 47.785 28.2857 47.6619 28.7876C47.5412 29.2872 47.366 29.7086 47.1364 30.0518C46.9091 30.3951 46.6321 30.6555 46.3054 30.8331C45.9811 31.0107 45.6141 31.0994 45.2045 31.0994C44.7973 31.0994 44.4339 31.0189 44.1143 30.858C43.7971 30.6946 43.5367 30.4685 43.3331 30.1797C43.1319 29.8885 43.0028 29.5511 42.946 29.1676H43.8125C43.8906 29.5014 44.0457 29.7772 44.2777 29.995C44.5121 30.2105 44.821 30.3182 45.2045 30.3182C45.7656 30.3182 46.2083 30.0732 46.5327 29.5831C46.8594 29.093 47.0227 28.4006 47.0227 27.5057H46.9659C46.8333 27.7045 46.6759 27.8762 46.4936 28.0206C46.3113 28.165 46.1089 28.2763 45.8864 28.3544C45.6638 28.4325 45.4271 28.4716 45.1761 28.4716C44.7595 28.4716 44.3771 28.3686 44.0291 28.1626C43.6835 27.9543 43.4065 27.669 43.1982 27.3068C42.9922 26.9422 42.8892 26.5256 42.8892 26.0568C42.8892 25.6117 42.9886 25.2045 43.1875 24.8352C43.3887 24.4635 43.6705 24.1676 44.0327 23.9474C44.3973 23.7273 44.8258 23.6207 45.3182 23.6278ZM45.3182 24.4091C45.0199 24.4091 44.7512 24.4837 44.5121 24.6328C44.2753 24.7796 44.0871 24.9785 43.9474 25.2294C43.8101 25.478 43.7415 25.7538 43.7415 26.0568C43.7415 26.3598 43.8078 26.6357 43.9403 26.8842C44.0753 27.1304 44.2588 27.3269 44.4908 27.4737C44.7251 27.6181 44.9915 27.6903 45.2898 27.6903C45.5147 27.6903 45.7242 27.6465 45.9183 27.5589C46.1125 27.469 46.2817 27.3471 46.4261 27.1932C46.5729 27.0369 46.6877 26.8606 46.7706 26.6641C46.8535 26.4652 46.8949 26.258 46.8949 26.0426C46.8949 25.7585 46.8262 25.4922 46.6889 25.2436C46.554 24.995 46.367 24.7938 46.1278 24.6399C45.8911 24.486 45.6212 24.4091 45.3182 24.4091ZM50.6493 27.8182L50.7061 26.2557L49.3851 27.0938L49.0442 26.4972L50.4363 25.7727L49.0442 25.0483L49.3851 24.4517L50.7061 25.2898L50.6493 23.7273H51.3311L51.2743 25.2898L52.5953 24.4517L52.9363 25.0483L51.5442 25.7727L52.9363 26.4972L52.5953 27.0938L51.2743 26.2557L51.3311 27.8182H50.6493ZM55.6493 27.8182L55.7061 26.2557L54.3851 27.0938L54.0442 26.4972L55.4363 25.7727L54.0442 25.0483L54.3851 24.4517L55.7061 25.2898L55.6493 23.7273H56.3311L56.2743 25.2898L57.5953 24.4517L57.9363 25.0483L56.5442 25.7727L57.9363 26.4972L57.5953 27.0938L56.2743 26.2557L56.3311 27.8182H55.6493ZM60.6493 27.8182L60.7061 26.2557L59.3851 27.0938L59.0442 26.4972L60.4363 25.7727L59.0442 25.0483L59.3851 24.4517L60.7061 25.2898L60.6493 23.7273H61.3311L61.2743 25.2898L62.5953 24.4517L62.9363 25.0483L61.5442 25.7727L62.9363 26.4972L62.5953 27.0938L61.2743 26.2557L61.3311 27.8182H60.6493ZM65.6493 27.8182L65.7061 26.2557L64.3851 27.0938L64.0442 26.4972L65.4363 25.7727L64.0442 25.0483L64.3851 24.4517L65.7061 25.2898L65.6493 23.7273H66.3311L66.2743 25.2898L67.5953 24.4517L67.9363 25.0483L66.5442 25.7727L67.9363 26.4972L67.5953 27.0938L66.2743 26.2557L66.3311 27.8182H65.6493ZM70.6493 27.8182L70.7061 26.2557L69.3851 27.0938L69.0442 26.4972L70.4363 25.7727L69.0442 25.0483L69.3851 24.4517L70.7061 25.2898L70.6493 23.7273H71.3311L71.2743 25.2898L72.5953 24.4517L72.9363 25.0483L71.5442 25.7727L72.9363 26.4972L72.5953 27.0938L71.2743 26.2557L71.3311 27.8182H70.6493ZM75.6493 27.8182L75.7061 26.2557L74.3851 27.0938L74.0442 26.4972L75.4363 25.7727L74.0442 25.0483L74.3851 24.4517L75.7061 25.2898L75.6493 23.7273H76.3311L76.2743 25.2898L77.5953 24.4517L77.9363 25.0483L76.5442 25.7727L77.9363 26.4972L77.5953 27.0938L76.2743 26.2557L76.3311 27.8182H75.6493ZM80.6493 27.8182L80.7061 26.2557L79.3851 27.0938L79.0442 26.4972L80.4363 25.7727L79.0442 25.0483L79.3851 24.4517L80.7061 25.2898L80.6493 23.7273H81.3311L81.2743 25.2898L82.5953 24.4517L82.9363 25.0483L81.5442 25.7727L82.9363 26.4972L82.5953 27.0938L81.2743 26.2557L81.3311 27.8182H80.6493Z" fill="white"/>
<path d="M49.1591 41.8182L49.2159 40.2557L47.8949 41.0938L47.554 40.4972L48.946 39.7727L47.554 39.0483L47.8949 38.4517L49.2159 39.2898L49.1591 37.7273H49.8409L49.7841 39.2898L51.1051 38.4517L51.446 39.0483L50.054 39.7727L51.446 40.4972L51.1051 41.0938L49.7841 40.2557L49.8409 41.8182H49.1591ZM54.1591 41.8182L54.2159 40.2557L52.8949 41.0938L52.554 40.4972L53.946 39.7727L52.554 39.0483L52.8949 38.4517L54.2159 39.2898L54.1591 37.7273H54.8409L54.7841 39.2898L56.1051 38.4517L56.446 39.0483L55.054 39.7727L56.446 40.4972L56.1051 41.0938L54.7841 40.2557L54.8409 41.8182H54.1591ZM59.1591 41.8182L59.2159 40.2557L57.8949 41.0938L57.554 40.4972L58.946 39.7727L57.554 39.0483L57.8949 38.4517L59.2159 39.2898L59.1591 37.7273H59.8409L59.7841 39.2898L61.1051 38.4517L61.446 39.0483L60.054 39.7727L61.446 40.4972L61.1051 41.0938L59.7841 40.2557L59.8409 41.8182H59.1591ZM64.1591 41.8182L64.2159 40.2557L62.8949 41.0938L62.554 40.4972L63.946 39.7727L62.554 39.0483L62.8949 38.4517L64.2159 39.2898L64.1591 37.7273H64.8409L64.7841 39.2898L66.1051 38.4517L66.446 39.0483L65.054 39.7727L66.446 40.4972L66.1051 41.0938L64.7841 40.2557L64.8409 41.8182H64.1591ZM69.1591 41.8182L69.2159 40.2557L67.8949 41.0938L67.554 40.4972L68.946 39.7727L67.554 39.0483L67.8949 38.4517L69.2159 39.2898L69.1591 37.7273H69.8409L69.7841 39.2898L71.1051 38.4517L71.446 39.0483L70.054 39.7727L71.446 40.4972L71.1051 41.0938L69.7841 40.2557L69.8409 41.8182H69.1591Z" fill="white"/>
</g>
<defs>
<linearGradient id="paint0_linear_87_9046" x1="98.12" y1="40.2048" x2="102.278" y2="40.2048" gradientUnits="userSpaceOnUse">
<stop stop-color="#FF66A9"/>
<stop offset="1" stop-color="#F53689"/>
</linearGradient>
<linearGradient id="paint1_linear_87_9046" x1="8.95958" y1="92.948" x2="13.0008" y2="92.948" gradientUnits="userSpaceOnUse">
<stop stop-color="#83A6FF"/>
<stop offset="1" stop-color="#5A78FF"/>
</linearGradient>
<clipPath id="clip0_87_9046">
<rect width="67" height="134" fill="white" transform="translate(26)"/>
</clipPath>
</defs>
</svg>
