<svg width="112" height="134" viewBox="0 0 112 134" fill="none" xmlns="http://www.w3.org/2000/svg">
<path d="M87.2842 118.961C87.6467 118.778 87.828 118.596 88.1905 118.413" stroke="#FF78B7" stroke-width="0.6123" stroke-linecap="round" stroke-linejoin="round"/>
<path d="M91.8158 115.858C94.7161 113.667 97.6164 111.477 99.9729 108.739C103.598 104.723 106.317 99.4296 106.136 93.9536C106.136 90.1204 104.686 86.4697 103.236 82.8191C101.786 79.351 100.154 75.7003 99.6103 71.8671C99.0665 68.0339 99.6103 63.8356 102.329 61.0976C103.961 59.2723 106.861 58.3596 109.036 60.185C109.761 60.9151 110.305 61.8278 110.668 62.923C113.931 73.6924 99.429 80.4462 90.7281 78.4383C86.5589 77.3431 82.571 74.9702 79.3082 72.2322C72.42 66.5736 67.5257 61.4627 64.6254 52.8837C62.0876 45.5823 60.4562 37.5509 55.0181 31.5273C36.8913 11.4486 1.18127 35.3605 1 58.5422C1 71.6846 9.1571 84.8269 21.4834 88.6601C27.4653 90.4855 33.991 90.1204 40.3354 89.7553C43.4169 89.5728 46.4985 89.3903 49.7614 89.2077" stroke="#FF78B7" stroke-linecap="round" stroke-linejoin="round" stroke-dasharray="1.22 4"/>
<path d="M51.7559 89.3903C52.1184 89.3903 52.4809 89.3903 52.8435 89.3903" stroke="#FF78B7" stroke-width="0.6123" stroke-linecap="round" stroke-linejoin="round"/>
<path d="M100.175 42.3808C101.444 42.3808 102.35 41.4681 102.35 40.1904C102.35 38.9127 101.444 38 100.175 38C98.9063 38 98 38.9127 98 40.1904C98 41.4681 99.0876 42.3808 100.175 42.3808Z" fill="url(#paint0_linear_87_8959)"/>
<path d="M10.994 95.0157C12.0816 95.0157 12.9879 94.1031 12.9879 93.0079C12.9879 91.9127 12.0816 91 10.994 91C9.90635 91 9 91.9127 9 93.0079C9 94.1031 9.90635 95.0157 10.994 95.0157Z" fill="url(#paint1_linear_87_8959)"/>
<g clip-path="url(#clip0_87_8959)">
<path d="M84.5175 0H34.4825C29.7977 0 26 3.78078 26 8.44461V125.555C26 130.219 29.7977 134 34.4825 134H84.5175C89.2023 134 93 130.219 93 125.555V8.44461C93 3.78078 89.2023 0 84.5175 0Z" fill="#DAE1ED"/>
<path d="M91.3057 9.92405V126.569C91.3057 129.279 89.1015 131.465 86.3881 131.465H32.6128C29.8994 131.465 27.6953 129.279 27.6953 126.569V9.92405C27.6953 9.26743 27.8205 8.64406 28.0543 8.07887L28.1211 7.93757C28.8892 6.21707 30.6174 5.0285 32.6128 5.0285H86.3881C88.3835 5.0285 90.1118 6.21707 90.8799 7.92926L90.9467 8.07887C91.1804 8.64406 91.3057 9.26743 91.3057 9.92405Z" fill="#E6ECF5"/>
<path d="M59.7546 3.02543H56.7323C56.4651 3.02543 56.248 2.80933 56.248 2.54335C56.248 2.27738 56.4651 2.06128 56.7323 2.06128H59.7546C60.0218 2.06128 60.2388 2.27738 60.2388 2.54335C60.2388 2.80933 60.0218 3.02543 59.7546 3.02543ZM62.7435 2.54335C62.7435 2.27738 62.5264 2.06128 62.2593 2.06128H61.8752C61.608 2.06128 61.391 2.27738 61.391 2.54335C61.391 2.80933 61.608 3.02543 61.8752 3.02543H62.2593C62.5264 3.02543 62.7435 2.80933 62.7435 2.54335Z" fill="#D9E3F7"/>
<path d="M68.0699 10.9713H50.9295C50.0112 10.9713 49.2598 10.2233 49.2598 9.30899C49.2598 8.39471 50.0112 7.64667 50.9295 7.64667H68.0699C68.9882 7.64667 69.7396 8.39471 69.7396 9.30899C69.7396 10.2233 68.9882 10.9713 68.0699 10.9713Z" fill="white"/>
<rect x="32" y="26" width="54" height="10" rx="5" fill="#7CA8FB"/>
<rect x="35" y="42" width="16" height="14" fill="#DAE1ED"/>
<rect x="35" y="57" width="16" height="14" fill="#DAE1ED"/>
<rect x="35" y="72" width="16" height="14" fill="#DAE1ED"/>
<rect x="35" y="87" width="16" height="14" fill="#DAE1ED"/>
<rect x="52" y="42" width="16" height="14" fill="#DAE1ED"/>
<rect x="52" y="57" width="16" height="14" fill="#DAE1ED"/>
<rect x="52" y="72" width="16" height="14" fill="#DAE1ED"/>
<rect x="52" y="87" width="16" height="14" fill="#DAE1ED"/>
<rect x="69" y="42" width="16" height="14" fill="#DAE1ED"/>
<rect x="69" y="57" width="16" height="14" fill="#DAE1ED"/>
<rect x="69" y="72" width="16" height="14" fill="#DAE1ED"/>
<rect x="69" y="87" width="16" height="14" fill="#DAE1ED"/>
<path d="M44.3168 46.9091V52H43.7003V47.5554H43.6705L42.4276 48.3807V47.7543L43.7003 46.9091H44.3168Z" fill="#7CA8FB"/>
<path d="M41.4077 65.956V65.4489L43.6449 61.9091H44.0128V62.6946H43.7642L42.0739 65.3693V65.4091H45.0866V65.956H41.4077ZM43.804 67V65.8018V65.5657V61.9091H44.3906V67H43.804Z" fill="#7CA8FB"/>
<path d="M41.6861 82L43.9631 77.4957V77.456H41.3381V76.9091H44.5994V77.4858L42.3324 82H41.6861Z" fill="#7CA8FB"/>
<path d="M42.5114 95.7727L42.5511 94.679L41.6264 95.2656L41.3878 94.848L42.3622 94.3409L41.3878 93.8338L41.6264 93.4162L42.5511 94.0028L42.5114 92.9091H42.9886L42.9489 94.0028L43.8736 93.4162L44.1122 93.8338L43.1378 94.3409L44.1122 94.848L43.8736 95.2656L42.9489 94.679L42.9886 95.7727H42.5114Z" fill="#7CA8FB"/>
<path d="M58.527 52V51.5526L60.2074 49.7131C60.4046 49.4976 60.567 49.3104 60.6946 49.1513C60.8222 48.9905 60.9167 48.8397 60.978 48.6989C61.041 48.5563 61.0724 48.4072 61.0724 48.2514C61.0724 48.0724 61.0294 47.9175 60.9432 47.7866C60.8587 47.6557 60.7427 47.5546 60.5952 47.4833C60.4477 47.4121 60.282 47.3764 60.098 47.3764C59.9025 47.3764 59.7318 47.417 59.5859 47.4982C59.4418 47.5778 59.3299 47.6896 59.2504 47.8338C59.1725 47.978 59.1335 48.147 59.1335 48.3409H58.5469C58.5469 48.0426 58.6156 47.7808 58.7532 47.5554C58.8907 47.33 59.078 47.1544 59.315 47.0284C59.5536 46.9025 59.8213 46.8395 60.1179 46.8395C60.4162 46.8395 60.6805 46.9025 60.9109 47.0284C61.1412 47.1544 61.3219 47.3242 61.4528 47.538C61.5837 47.7518 61.6491 47.9896 61.6491 48.2514C61.6491 48.4387 61.6152 48.6218 61.5472 48.8008C61.4809 48.9781 61.3649 49.1761 61.1992 49.3949C61.0352 49.612 60.8073 49.8771 60.5156 50.1903L59.3722 51.4134V51.4531H61.7386V52H58.527Z" fill="#7CA8FB"/>
<path d="M60.1179 67.0696C59.8262 67.0696 59.5636 67.0116 59.3299 66.8956C59.0962 66.7796 58.909 66.6205 58.7681 66.4183C58.6272 66.2161 58.5502 65.9858 58.5369 65.7273H59.1335C59.1567 65.9576 59.2611 66.1482 59.4467 66.299C59.634 66.4482 59.8577 66.5227 60.1179 66.5227C60.3267 66.5227 60.5123 66.4738 60.6747 66.3761C60.8388 66.2783 60.9672 66.1441 61.06 65.9734C61.1545 65.801 61.2017 65.6063 61.2017 65.3892C61.2017 65.1671 61.1528 64.9691 61.055 64.7951C60.9589 64.6194 60.8263 64.4811 60.6573 64.38C60.4883 64.2789 60.2952 64.2275 60.0781 64.2259C59.9223 64.2242 59.7624 64.2482 59.5984 64.2979C59.4343 64.346 59.2992 64.4081 59.1932 64.4844L58.6165 64.4148L58.9247 61.9091H61.5696V62.456H59.4418L59.2628 63.9574H59.2926C59.397 63.8745 59.5279 63.8058 59.6854 63.7511C59.8428 63.6964 60.0069 63.669 60.1776 63.669C60.4891 63.669 60.7667 63.7436 61.0103 63.8928C61.2556 64.0402 61.4478 64.2424 61.587 64.4993C61.7279 64.7562 61.7983 65.0495 61.7983 65.3793C61.7983 65.7041 61.7254 65.9941 61.5795 66.2493C61.4354 66.5028 61.2365 66.7034 60.983 66.8509C60.7294 66.9967 60.4411 67.0696 60.1179 67.0696Z" fill="#7CA8FB"/>
<path d="M60.1577 82.0696C59.8163 82.0696 59.5147 82.0091 59.2528 81.8881C58.9927 81.7655 58.7897 81.5973 58.6438 81.3835C58.498 81.1681 58.4259 80.9228 58.4276 80.6477C58.4259 80.4323 58.4682 80.2334 58.5543 80.0511C58.6405 79.8672 58.7582 79.7139 58.9073 79.5913C59.0581 79.467 59.2263 79.3883 59.4119 79.3551V79.3253C59.1683 79.2623 58.9744 79.1256 58.8303 78.9151C58.6861 78.703 58.6148 78.4619 58.6165 78.1918C58.6148 77.9332 58.6803 77.7021 58.8129 77.4982C58.9454 77.2944 59.1277 77.1336 59.3597 77.016C59.5934 76.8983 59.8594 76.8395 60.1577 76.8395C60.4527 76.8395 60.7161 76.8983 60.9482 77.016C61.1802 77.1336 61.3625 77.2944 61.495 77.4982C61.6293 77.7021 61.6972 77.9332 61.6989 78.1918C61.6972 78.4619 61.6235 78.703 61.4776 78.9151C61.3335 79.1256 61.142 79.2623 60.9034 79.3253V79.3551C61.0874 79.3883 61.2531 79.467 61.4006 79.5913C61.5481 79.7139 61.6657 79.8672 61.7536 80.0511C61.8414 80.2334 61.8861 80.4323 61.8878 80.6477C61.8861 80.9228 61.8116 81.1681 61.6641 81.3835C61.5182 81.5973 61.3152 81.7655 61.055 81.8881C60.7965 82.0091 60.4974 82.0696 60.1577 82.0696ZM60.1577 81.5227C60.388 81.5227 60.5869 81.4854 60.7543 81.4109C60.9216 81.3363 61.0509 81.2311 61.142 81.0952C61.2332 80.9593 61.2796 80.8002 61.2812 80.6179C61.2796 80.4257 61.2299 80.2558 61.1321 80.1083C61.0343 79.9608 60.9009 79.8448 60.7319 79.7603C60.5645 79.6758 60.3731 79.6335 60.1577 79.6335C59.9406 79.6335 59.7467 79.6758 59.576 79.7603C59.407 79.8448 59.2736 79.9608 59.1758 80.1083C59.0797 80.2558 59.0324 80.4257 59.0341 80.6179C59.0324 80.8002 59.0763 80.9593 59.1658 81.0952C59.257 81.2311 59.3871 81.3363 59.5561 81.4109C59.7251 81.4854 59.9257 81.5227 60.1577 81.5227ZM60.1577 79.1065C60.34 79.1065 60.5015 79.0701 60.6424 78.9972C60.7849 78.9242 60.8968 78.8223 60.978 78.6914C61.0592 78.5605 61.1006 78.4072 61.1023 78.2315C61.1006 78.0592 61.06 77.9092 60.9805 77.7816C60.9009 77.6523 60.7907 77.5529 60.6499 77.4833C60.509 77.4121 60.3449 77.3764 60.1577 77.3764C59.9671 77.3764 59.8005 77.4121 59.658 77.4833C59.5155 77.5529 59.4053 77.6523 59.3274 77.7816C59.2495 77.9092 59.2114 78.0592 59.2131 78.2315C59.2114 78.4072 59.2504 78.5605 59.3299 78.6914C59.4111 78.8223 59.523 78.9242 59.6655 78.9972C59.808 79.0701 59.9721 79.1065 60.1577 79.1065Z" fill="#7CA8FB"/>
<path d="M60.1875 97.0696C59.813 97.0696 59.494 96.9677 59.2305 96.7638C58.967 96.5584 58.7656 96.2609 58.6264 95.8714C58.4872 95.4804 58.4176 95.008 58.4176 94.4545C58.4176 93.9044 58.4872 93.4345 58.6264 93.0451C58.7673 92.654 58.9695 92.3557 59.233 92.1502C59.4981 91.9431 59.8163 91.8395 60.1875 91.8395C60.5587 91.8395 60.8761 91.9431 61.1396 92.1502C61.4047 92.3557 61.6069 92.654 61.7461 93.0451C61.887 93.4345 61.9574 93.9044 61.9574 94.4545C61.9574 95.008 61.8878 95.4804 61.7486 95.8714C61.6094 96.2609 61.408 96.5584 61.1445 96.7638C60.881 96.9677 60.562 97.0696 60.1875 97.0696ZM60.1875 96.5227C60.5587 96.5227 60.8471 96.3437 61.0526 95.9858C61.258 95.6278 61.3608 95.1174 61.3608 94.4545C61.3608 94.0137 61.3136 93.6384 61.2191 93.3285C61.1263 93.0186 60.9921 92.7824 60.8164 92.62C60.6424 92.4576 60.4328 92.3764 60.1875 92.3764C59.8196 92.3764 59.5321 92.5579 59.3249 92.9208C59.1178 93.2821 59.0142 93.7933 59.0142 94.4545C59.0142 94.8954 59.0606 95.2699 59.1534 95.5781C59.2462 95.8864 59.3796 96.1209 59.5536 96.2816C59.7293 96.4424 59.9406 96.5227 60.1875 96.5227Z" fill="#7CA8FB"/>
<path d="M77.2472 52.0696C76.919 52.0696 76.6265 52.0133 76.3697 51.9006C76.1145 51.7879 75.9115 51.6313 75.7607 51.4308C75.6115 51.2286 75.5303 50.9941 75.517 50.7273H76.1435C76.1567 50.8913 76.2131 51.033 76.3125 51.1523C76.4119 51.27 76.542 51.3612 76.7028 51.4258C76.8635 51.4904 77.0417 51.5227 77.2372 51.5227C77.456 51.5227 77.6499 51.4846 77.8189 51.4084C77.9879 51.3321 78.1205 51.2261 78.2166 51.0902C78.3127 50.9543 78.3608 50.7969 78.3608 50.6179C78.3608 50.4306 78.3144 50.2657 78.2216 50.1232C78.1288 49.979 77.9929 49.8664 77.8139 49.7852C77.6349 49.704 77.4162 49.6634 77.1577 49.6634H76.75V49.1165H77.1577C77.3598 49.1165 77.5372 49.08 77.6896 49.0071C77.8438 48.9342 77.9639 48.8314 78.0501 48.6989C78.1379 48.5663 78.1818 48.4105 78.1818 48.2315C78.1818 48.0592 78.1437 47.9092 78.0675 47.7816C77.9912 47.654 77.8835 47.5546 77.7443 47.4833C77.6068 47.4121 77.4444 47.3764 77.2571 47.3764C77.0814 47.3764 76.9157 47.4087 76.7599 47.4734C76.6058 47.5363 76.4799 47.6283 76.3821 47.7493C76.2843 47.8686 76.2313 48.0128 76.223 48.1818H75.6264C75.6364 47.915 75.7167 47.6813 75.8675 47.4808C76.0183 47.2786 76.2156 47.1212 76.4592 47.0085C76.7044 46.8958 76.9737 46.8395 77.267 46.8395C77.5819 46.8395 77.852 46.9033 78.0774 47.0309C78.3028 47.1568 78.476 47.3234 78.5969 47.5305C78.7179 47.7377 78.7784 47.9614 78.7784 48.2017C78.7784 48.4884 78.703 48.7328 78.5522 48.935C78.4031 49.1372 78.2 49.2772 77.9432 49.3551V49.3949C78.2647 49.4479 78.5157 49.5846 78.6964 49.805C78.877 50.0238 78.9673 50.2947 78.9673 50.6179C78.9673 50.8946 78.8919 51.1432 78.7411 51.3636C78.592 51.5824 78.3881 51.7547 78.1296 51.8807C77.8711 52.0066 77.5769 52.0696 77.2472 52.0696Z" fill="#7CA8FB"/>
<path d="M77.2173 67.0696C77.0085 67.0663 76.7997 67.0265 76.5909 66.9503C76.3821 66.8741 76.1915 66.7456 76.0192 66.565C75.8468 66.3827 75.7085 66.1366 75.604 65.8267C75.4996 65.5152 75.4474 65.1241 75.4474 64.6534C75.4474 64.2027 75.4897 63.8033 75.5742 63.4553C75.6587 63.1056 75.7814 62.8114 75.9421 62.5728C76.1029 62.3325 76.2968 62.1502 76.5238 62.0259C76.7525 61.9016 77.0102 61.8395 77.2969 61.8395C77.5819 61.8395 77.8355 61.8967 78.0575 62.011C78.2813 62.1237 78.4635 62.2811 78.6044 62.4833C78.7453 62.6855 78.8364 62.9183 78.8778 63.1818H78.2713C78.215 62.9531 78.1056 62.7634 77.9432 62.6126C77.7808 62.4618 77.5653 62.3864 77.2969 62.3864C76.9025 62.3864 76.5917 62.5579 76.3647 62.9009C76.1393 63.244 76.0258 63.7254 76.0241 64.3452H76.0639C76.1567 64.2043 76.2669 64.0842 76.3945 63.9847C76.5238 63.8836 76.6663 63.8058 76.8221 63.7511C76.9779 63.6964 77.1428 63.669 77.3168 63.669C77.6084 63.669 77.8752 63.742 78.1172 63.8878C78.3591 64.032 78.553 64.2317 78.6989 64.4869C78.8447 64.7404 78.9176 65.0312 78.9176 65.3594C78.9176 65.6742 78.8472 65.9626 78.7063 66.2244C78.5655 66.4846 78.3674 66.6918 78.1122 66.8459C77.8587 66.9983 77.5604 67.0729 77.2173 67.0696ZM77.2173 66.5227C77.4261 66.5227 77.6134 66.4705 77.7791 66.3661C77.9465 66.2617 78.0782 66.1217 78.1744 65.946C78.2721 65.7704 78.321 65.5748 78.321 65.3594C78.321 65.1489 78.2738 64.9575 78.1793 64.7852C78.0865 64.6112 77.9581 64.4728 77.794 64.37C77.6316 64.2673 77.446 64.2159 77.2372 64.2159C77.0798 64.2159 76.9331 64.2474 76.7972 64.3104C76.6613 64.3717 76.542 64.4562 76.4393 64.5639C76.3382 64.6716 76.2586 64.7951 76.2006 64.9343C76.1426 65.0719 76.1136 65.2169 76.1136 65.3693C76.1136 65.5715 76.1609 65.7604 76.2553 65.9361C76.3514 66.1117 76.4824 66.2534 76.6481 66.3612C76.8155 66.4689 77.0052 66.5227 77.2173 66.5227Z" fill="#7CA8FB"/>
<path d="M77.1477 76.8395C77.3565 76.8411 77.5653 76.8809 77.7741 76.9588C77.983 77.0367 78.1735 77.166 78.3459 77.3466C78.5182 77.5256 78.6566 77.77 78.761 78.0799C78.8654 78.3898 78.9176 78.7784 78.9176 79.2457C78.9176 79.6982 78.8745 80.1 78.7884 80.4513C78.7038 80.801 78.5812 81.096 78.4205 81.3363C78.2614 81.5766 78.0675 81.7589 77.8388 81.8832C77.6117 82.0075 77.3549 82.0696 77.0682 82.0696C76.7831 82.0696 76.5288 82.0133 76.305 81.9006C76.083 81.7862 75.9007 81.628 75.7582 81.4258C75.6173 81.2219 75.527 80.9858 75.4872 80.7173H76.0938C76.1484 80.951 76.257 81.1441 76.4194 81.2965C76.5835 81.4473 76.7997 81.5227 77.0682 81.5227C77.4609 81.5227 77.7708 81.3512 77.9979 81.0082C78.2266 80.6651 78.3409 80.1804 78.3409 79.554H78.3011C78.2083 79.6932 78.0981 79.8133 77.9705 79.9144C77.8429 80.0155 77.7012 80.0934 77.5455 80.1481C77.3897 80.2028 77.224 80.2301 77.0483 80.2301C76.7566 80.2301 76.489 80.158 76.2454 80.0138C76.0034 79.868 75.8095 79.6683 75.6637 79.4148C75.5195 79.1596 75.4474 78.8679 75.4474 78.5398C75.4474 78.2282 75.517 77.9432 75.6562 77.6847C75.7971 77.4245 75.9943 77.2173 76.2479 77.0632C76.5031 76.9091 76.803 76.8345 77.1477 76.8395ZM77.1477 77.3864C76.9389 77.3864 76.7508 77.4386 76.5835 77.543C76.4177 77.6457 76.286 77.7849 76.1882 77.9606C76.0921 78.1346 76.044 78.3277 76.044 78.5398C76.044 78.7519 76.0904 78.945 76.1832 79.119C76.2777 79.2913 76.4061 79.4289 76.5685 79.5316C76.7326 79.6327 76.919 79.6832 77.1278 79.6832C77.2853 79.6832 77.4319 79.6526 77.5678 79.5913C77.7037 79.5283 77.8222 79.4429 77.9233 79.3352C78.026 79.2259 78.1064 79.1024 78.1644 78.9648C78.2224 78.8256 78.2514 78.6806 78.2514 78.5298C78.2514 78.331 78.2034 78.1445 78.1072 77.9705C78.0128 77.7965 77.8819 77.6557 77.7145 77.5479C77.5488 77.4402 77.3598 77.3864 77.1477 77.3864Z" fill="#7CA8FB"/>
<path d="M77.4361 97L78.2713 91.9091H78.7685L77.9332 97H77.4361ZM75.1193 95.5881L75.1989 95.0909H78.9972L78.9176 95.5881H75.1193ZM75.6463 97L76.4815 91.9091H76.9787L76.1435 97H75.6463ZM75.4176 93.8182L75.4972 93.321H79.2955L79.2159 93.8182H75.4176Z" fill="#7CA8FB"/>
<path d="M42.1875 34.0696C41.813 34.0696 41.494 33.9677 41.2305 33.7638C40.967 33.5584 40.7656 33.2609 40.6264 32.8714C40.4872 32.4804 40.4176 32.008 40.4176 31.4545C40.4176 30.9044 40.4872 30.4345 40.6264 30.0451C40.7673 29.654 40.9695 29.3557 41.233 29.1502C41.4981 28.9431 41.8163 28.8395 42.1875 28.8395C42.5587 28.8395 42.8761 28.9431 43.1396 29.1502C43.4047 29.3557 43.6069 29.654 43.7461 30.0451C43.887 30.4345 43.9574 30.9044 43.9574 31.4545C43.9574 32.008 43.8878 32.4804 43.7486 32.8714C43.6094 33.2609 43.408 33.5584 43.1445 33.7638C42.881 33.9677 42.562 34.0696 42.1875 34.0696ZM42.1875 33.5227C42.5587 33.5227 42.8471 33.3437 43.0526 32.9858C43.258 32.6278 43.3608 32.1174 43.3608 31.4545C43.3608 31.0137 43.3136 30.6384 43.2191 30.3285C43.1263 30.0186 42.9921 29.7824 42.8164 29.62C42.6424 29.4576 42.4328 29.3764 42.1875 29.3764C41.8196 29.3764 41.5321 29.5579 41.3249 29.9208C41.1178 30.2821 41.0142 30.7933 41.0142 31.4545C41.0142 31.8954 41.0606 32.2699 41.1534 32.5781C41.2462 32.8864 41.3796 33.1209 41.5536 33.2816C41.7293 33.4424 41.9406 33.5227 42.1875 33.5227ZM46.5227 28.8395C46.7315 28.8411 46.9403 28.8809 47.1491 28.9588C47.358 29.0367 47.5485 29.166 47.7209 29.3466C47.8932 29.5256 48.0316 29.77 48.136 30.0799C48.2404 30.3898 48.2926 30.7784 48.2926 31.2457C48.2926 31.6982 48.2495 32.1 48.1634 32.4513C48.0788 32.801 47.9562 33.096 47.7955 33.3363C47.6364 33.5766 47.4425 33.7589 47.2138 33.8832C46.9867 34.0075 46.7299 34.0696 46.4432 34.0696C46.1581 34.0696 45.9038 34.0133 45.68 33.9006C45.458 33.7862 45.2757 33.628 45.1332 33.4258C44.9923 33.2219 44.902 32.9858 44.8622 32.7173H45.4688C45.5234 32.951 45.632 33.1441 45.7944 33.2965C45.9585 33.4473 46.1747 33.5227 46.4432 33.5227C46.8359 33.5227 47.1458 33.3512 47.3729 33.0082C47.6016 32.6651 47.7159 32.1804 47.7159 31.554H47.6761C47.5833 31.6932 47.4731 31.8133 47.3455 31.9144C47.2179 32.0155 47.0762 32.0934 46.9205 32.1481C46.7647 32.2028 46.599 32.2301 46.4233 32.2301C46.1316 32.2301 45.864 32.158 45.6204 32.0138C45.3784 31.868 45.1845 31.6683 45.0387 31.4148C44.8945 31.1596 44.8224 30.8679 44.8224 30.5398C44.8224 30.2282 44.892 29.9432 45.0312 29.6847C45.1721 29.4245 45.3693 29.2173 45.6229 29.0632C45.8781 28.9091 46.178 28.8345 46.5227 28.8395ZM46.5227 29.3864C46.3139 29.3864 46.1258 29.4386 45.9585 29.543C45.7927 29.6457 45.661 29.7849 45.5632 29.9606C45.4671 30.1346 45.419 30.3277 45.419 30.5398C45.419 30.7519 45.4654 30.945 45.5582 31.119C45.6527 31.2913 45.7811 31.4289 45.9435 31.5316C46.1076 31.6327 46.294 31.6832 46.5028 31.6832C46.6603 31.6832 46.8069 31.6526 46.9428 31.5913C47.0787 31.5283 47.1972 31.4429 47.2983 31.3352C47.401 31.2259 47.4814 31.1024 47.5394 30.9648C47.5974 30.8256 47.6264 30.6806 47.6264 30.5298C47.6264 30.331 47.5784 30.1445 47.4822 29.9705C47.3878 29.7965 47.2569 29.6557 47.0895 29.5479C46.9238 29.4402 46.7348 29.3864 46.5227 29.3864ZM50.1352 27.2685V35.6406H49.6381V27.2685H50.1352Z" fill="white"/>
</g>
<defs>
<linearGradient id="paint0_linear_87_8959" x1="98.12" y1="40.2048" x2="102.278" y2="40.2048" gradientUnits="userSpaceOnUse">
<stop stop-color="#FF66A9"/>
<stop offset="1" stop-color="#F53689"/>
</linearGradient>
<linearGradient id="paint1_linear_87_8959" x1="8.95958" y1="92.948" x2="13.0008" y2="92.948" gradientUnits="userSpaceOnUse">
<stop stop-color="#83A6FF"/>
<stop offset="1" stop-color="#5A78FF"/>
</linearGradient>
<clipPath id="clip0_87_8959">
<rect width="67" height="134" fill="white" transform="translate(26)"/>
</clipPath>
</defs>
</svg>
