<svg width="144" height="66" viewBox="0 0 144 66" fill="none" xmlns="http://www.w3.org/2000/svg">
<path d="M74.1239 22.7667V7.03783C74.1239 6.43545 74.0569 5.76612 73.4547 5.56533C73.0532 5.4984 72.6516 5.56533 72.4509 5.83305C72.1832 6.10078 72.0494 6.50236 71.9824 6.83702C69.7741 13.4632 67.9673 20.1563 65.8928 26.7825C65.692 27.4518 65.2905 28.255 64.6213 28.3219C64.1529 28.3889 63.6175 28.1211 63.3499 27.7196C63.0822 27.318 62.8814 26.8495 62.7476 26.4479C60.74 20.1563 58.6655 13.7309 56.5241 7.37248C56.2564 6.56931 55.8549 5.63227 55.0519 5.63227C54.9849 12.9278 54.8511 20.0894 54.7842 27.3849C54.7842 27.5857 54.7842 27.8534 54.5834 27.9873C54.5165 28.0542 54.3158 28.0542 54.115 28.0542C53.7135 28.0542 53.312 28.0542 52.8435 27.9873C52.5759 27.9873 52.2413 27.9873 52.1743 27.7196C52.1074 27.5188 52.1074 27.4518 52.1074 27.251V6.36851C52.1074 5.49841 52.1074 4.62831 52.3751 3.7582C52.5759 3.15582 52.9774 2.62036 53.4458 2.21877C54.0481 1.81718 54.5834 1.75026 55.1857 1.61639C56.5241 1.4156 57.9963 1.4156 59.2009 2.28571C60.2047 3.08888 60.6731 4.22672 61.0746 5.36455C62.413 9.04576 63.6845 12.8608 65.0898 16.542C65.1567 16.9436 65.4913 17.3452 65.8928 17.3452C66.1605 17.2783 66.2943 16.9436 66.3612 16.6759C67.4319 12.9947 68.5027 9.31348 69.5734 5.56533C69.9749 4.29364 70.3764 3.02194 71.3132 2.15184C72.4509 1.14787 74.1239 1.14788 75.5961 1.68333C76.5999 1.95105 77.6037 2.4865 78.2059 3.35661C79.2767 4.6283 79.2767 6.43545 79.2767 8.10873V27.7196C79.2767 27.7865 79.2767 27.9203 79.2097 27.9873C79.1428 28.1881 78.9421 28.1881 78.7413 28.1881H74.6592C74.4585 28.1881 74.3916 28.1881 74.1908 28.1212V27.4518C74.2577 25.9124 74.2577 24.373 74.2577 22.7667H74.1239Z" fill="#1F74C9"/>
<path d="M22.5972 14.8018C22.5972 13.7978 22.6641 12.8608 22.8649 11.8568C23.8687 7.50628 27.1477 3.69122 31.4306 2.35259C34.1742 1.48249 37.0518 1.48249 39.7955 2.35259C42.5392 3.15577 45.149 4.69517 46.9558 6.9039C49.9003 10.3843 50.7702 15.538 49.1642 19.8216C47.625 24.1052 43.6099 27.3848 39.1263 28.2549C33.7058 29.3258 27.75 26.7155 24.7386 22.0304C23.2664 19.8216 22.5303 17.2782 22.5303 14.7349L22.5972 14.8018ZM43.8775 15.0695C43.8775 12.9277 43.6768 10.9867 43.0076 9.04571C42.5392 7.57322 41.87 6.10073 40.6654 4.9629C38.7248 2.95497 35.1111 2.62031 32.9697 3.95894C31.2967 5.02983 30.4268 6.50232 29.6906 8.24253C28.3523 11.1875 28.2184 14.1994 28.6869 17.2782C29.0884 19.8886 29.9583 22.365 31.6313 24.4399C33.3043 26.5817 35.7803 27.1841 38.1225 26.3809C39.9962 25.7785 41.1338 24.5068 42.0038 22.7666C43.3422 20.424 43.9444 17.6798 43.8775 15.0026V15.0695Z" fill="#1F74C9"/>
<path d="M22.5296 28.1211C20.6558 28.1211 18.9159 28.0542 17.1091 28.0542C15.3023 28.0542 16.6407 28.0541 16.4399 27.9872C16.2391 27.9203 16.0384 27.5856 15.9715 27.3848C13.8301 23.302 11.6886 19.2862 9.54722 15.2034C10.8856 15.1364 12.3578 14.9356 13.4285 14.1325C14.9677 13.1285 15.6369 11.1875 15.6369 9.44729C15.6369 7.70708 15.4361 7.43934 14.8338 6.5023C14.0308 5.36447 12.6924 4.56131 11.3541 4.29358C10.0157 4.02586 8.54343 4.09278 7.0712 4.22665C6.87044 4.22665 6.80354 4.22665 6.60278 4.29358C6.3351 4.49437 6.3351 4.76211 6.3351 5.09676C6.3351 12.4592 6.26818 19.8885 6.26818 27.251C6.26818 27.3848 6.26818 27.6526 6.20126 27.7195C6.0005 27.9203 5.79975 27.9203 5.59899 27.9203H1.44998C1.24923 27.9203 0.981548 27.9203 0.780791 27.7195C0.713871 27.6526 0.713867 27.4518 0.713867 27.251C0.713867 19.2862 0.780791 11.3883 0.780791 3.42348C0.780791 2.48643 1.04847 2.35258 1.8515 2.35258H4.66212C6.53586 2.35258 8.34268 2.35258 10.2164 2.28564C11.7556 2.28564 13.2947 2.28564 14.9008 2.48643C16.4399 2.68722 17.9121 3.28961 19.1836 4.22665C20.4551 5.29754 21.325 6.83697 21.3919 8.37639C21.4589 9.91581 20.9904 11.8568 19.719 12.9277C18.6483 13.9317 17.3099 14.4002 16.0384 14.8687C15.8376 14.9356 15.6369 15.0695 15.6369 15.2703C15.6369 15.4711 15.6369 15.4711 15.7038 15.6719C17.9121 19.487 20.1874 23.369 22.3957 27.1171C22.5965 27.3848 22.6634 27.7195 22.5965 28.1211H22.5296Z" fill="#1F74C9"/>
<path d="M114.543 18.8846C115.145 13.4632 114.543 7.90789 114.543 2.48646C114.543 -2.93497 114.543 2.21875 114.61 2.08489C114.677 1.95103 114.878 1.88409 115.078 2.01796H116.55C116.751 2.01796 116.818 2.01796 116.952 2.08489C117.086 2.15182 117.153 2.3526 117.153 2.5534V26.5817C117.153 27.251 117.153 28.1211 116.55 28.5896C115.948 29.192 115.011 29.0582 114.342 28.6566C113.673 28.255 113.205 27.5857 112.669 26.9163C108.989 21.5619 105.375 16.2074 101.694 10.8529C100.691 9.51424 99.8207 8.10869 98.6161 6.97086C98.4154 6.90393 98.3484 6.70314 98.1477 6.70314C97.6792 6.70314 97.4785 7.30552 97.4785 7.77404C97.2777 14.601 97.4116 21.4949 97.4785 28.3888H95.7386C95.5378 28.3888 95.3371 28.3888 95.1363 28.3219C94.9355 28.1211 94.9355 27.9203 94.9355 27.7195V6.6362C94.9355 5.83303 94.9355 4.96292 95.1363 4.22668C95.9393 1.68329 99.4861 1.48251 101.561 2.7542C102.698 3.42351 103.568 4.62828 104.371 5.76611C107.115 9.58119 109.792 13.4632 112.535 17.2113C113.205 17.8806 113.807 18.5499 114.543 18.8846Z" fill="#1F74C9"/>
<path d="M142.315 28.6565H137.162C136.56 28.6565 136.359 28.4557 136.158 27.8533C135.556 25.6446 134.887 23.302 134.218 21.0264C134.151 20.5578 133.749 20.2232 133.214 20.2232H124.113C123.31 20.2232 123.042 20.4909 122.841 21.2271C122.239 23.1681 121.771 25.243 121.168 27.184C120.767 28.4557 120.566 28.6565 119.228 28.3219C119.027 28.3219 118.759 28.2549 118.425 28.1211C118.692 27.251 119.027 26.3809 119.228 25.5108C120.365 21.428 121.57 17.3451 122.708 13.2623C123.578 10.3174 124.18 7.30546 125.251 4.49435C126.121 2.08482 127.593 1.21472 130.002 1.21472C132.411 1.21472 132.143 1.48245 133.013 2.21869C133.415 2.48641 133.816 3.0888 134.017 3.55731C134.619 5.09673 135.288 6.56923 135.757 8.10865C136.627 10.652 137.43 13.1954 138.166 15.8057C138.835 17.9475 139.504 20.1562 140.174 22.298C140.776 24.1721 141.311 25.9793 141.913 27.8533C142.114 28.1211 142.114 28.3219 142.181 28.6565H142.315ZM132.21 17.9475C133.08 18.0145 133.281 17.8806 133.013 17.0774C132.746 16.0065 132.411 14.9356 132.143 13.9986C131.273 11.2544 130.47 8.57715 129.533 5.83297C129.466 5.56525 128.931 5.23059 128.663 5.16366C128.463 5.16366 128.061 5.43139 127.86 5.63218C127.66 5.89991 127.593 6.3015 127.459 6.63615C126.455 10.1166 125.518 13.6639 124.514 17.1444C124.314 17.9475 124.314 18.0145 125.184 18.0145C127.526 18.0145 129.868 18.0145 132.21 18.0145V17.9475Z" fill="#1F74C9"/>
<path d="M89.8512 7.70706C89.8512 14.4002 89.8512 21.0933 89.9182 27.7195C89.9182 27.9203 89.9181 27.9872 89.8512 28.1211C89.7843 28.2549 89.6505 28.188 89.5836 28.188H85.9699C85.5684 28.188 85.3007 28.188 84.9661 28.1211C84.1631 27.8533 84.1631 27.251 84.1631 26.5816C84.1631 25.9123 84.23 24.8414 84.23 23.8375C84.2969 22.0973 84.2969 20.357 84.2969 18.6168C84.2969 15.0025 84.2969 11.5221 84.23 7.90784C84.1631 6.03377 84.1631 4.29355 84.23 2.48641C84.23 2.21869 84.2969 1.88403 84.4977 1.8171C84.5646 1.75017 84.7654 1.75018 84.9661 1.75018C86.4384 1.75018 87.9775 1.8171 89.4497 1.8171C90.9219 1.8171 89.7174 1.8171 89.8512 1.88403C89.9851 1.95096 89.9182 2.08482 89.9182 2.15175C89.7174 4.15969 89.7174 5.96684 89.7174 7.70706H89.8512Z" fill="#1F74C9"/>
<path d="M6.73018 38.962L6.40018 49.874H4.00218L3.65018 38.962H6.73018ZM3.36418 53.438C3.36418 52.404 4.15618 51.634 5.21218 51.634C6.24618 51.634 7.06018 52.404 7.06018 53.438C7.06018 54.494 6.24618 55.308 5.21218 55.308C4.15618 55.308 3.36418 54.494 3.36418 53.438ZM16.2529 61.358C12.1609 61.358 9.05892 58.894 9.36692 54.296C9.49892 52.448 10.3129 50.38 10.8849 49.192L12.9969 50.16C12.4029 51.502 11.8749 52.844 11.8089 54.318C11.7429 56.892 13.3709 58.08 16.2529 58.08C18.7609 58.08 20.8289 57.112 21.3789 56.364C20.9169 55.924 19.0469 54.824 17.0669 54.098L17.7489 51.018C20.2349 51.502 21.9949 51.722 23.8429 51.722H24.1729L24.3489 53.372L24.1729 55H23.8429C23.5129 55 23.1829 54.978 22.8529 54.956C23.3369 55.44 23.6669 55.968 23.6669 56.518C23.6889 58.696 20.5209 61.358 16.2529 61.358ZM41.9276 55C40.7396 55 39.7496 54.494 39.0236 53.548C38.3196 54.428 37.3516 54.978 36.2516 55H36.1856H36.1196C34.7556 54.978 33.7876 54.296 33.2596 53.108C32.5116 54.274 31.5656 54.978 30.3336 55H30.2236C28.9696 55 27.9576 54.274 27.5836 53.152C26.6376 54.362 25.4056 55 24.0196 55H23.9536L23.7776 53.372L23.9536 51.722H24.0636C24.9876 51.722 25.9556 51.26 26.3956 50.688C27.1216 49.852 27.4296 48.51 27.5396 48.092L29.8276 48.334C29.6956 48.796 29.4096 49.786 29.3656 50.49C29.3436 51.304 29.6296 51.722 30.2896 51.722H30.3556C31.1476 51.722 31.6976 51.282 32.0936 50.512C32.5336 49.632 32.7536 48.4 32.8416 47.938L35.1076 48.048C35.0416 48.444 34.8656 49.5 34.8656 50.116C34.8656 51.106 35.2616 51.722 36.2076 51.722C36.8676 51.722 37.5716 51.436 37.9236 51.018C37.7916 50.446 37.6156 49.566 37.3296 48.048L39.5956 47.432C40.0136 49.742 40.1236 50.182 40.2996 50.71C40.5196 51.37 41.0036 51.722 41.9276 51.722H42.0596L42.2136 53.372L42.0376 55H41.9276ZM30.3776 44C30.9716 43.428 31.5656 42.834 32.1376 42.262C32.7316 42.834 33.3036 43.428 33.8976 44C33.3036 44.594 32.7316 45.166 32.1376 45.782C31.5656 45.166 30.9716 44.594 30.3776 44ZM32.6436 41.404C33.1716 40.876 33.6776 40.37 34.2056 39.864L35.7456 41.404C35.2176 41.932 34.7116 42.46 34.2056 42.966C33.6776 42.46 33.1716 41.932 32.6436 41.404ZM34.5136 44L36.2956 42.262C36.8676 42.834 37.4616 43.428 38.0336 44C37.4616 44.594 36.8676 45.166 36.2956 45.782C35.7016 45.166 35.1076 44.594 34.5136 44ZM41.8051 55V51.722H43.4551C46.6891 51.722 49.4171 51.128 52.7171 49.456C52.2331 49.258 51.7271 49.016 51.1551 48.73C50.0331 48.158 48.8011 47.74 47.7891 47.74C46.5571 47.74 45.6771 48.62 45.3031 49.214L43.4551 47.872C44.5331 45.738 46.0291 44.572 47.9211 44.594C49.2191 44.616 50.1651 45.034 52.1671 46.046C53.7731 46.882 54.8071 47.322 56.3031 47.63L56.4131 50.578C55.7971 50.754 54.7851 51.326 53.6411 51.942C49.5711 54.076 47.0631 54.978 42.7951 55H41.8051ZM46.1171 41.052C46.8211 40.37 47.4811 39.688 48.1631 39.028C48.8451 39.688 49.5051 40.37 50.1871 41.052L48.1631 43.076C47.4811 42.394 46.8211 41.734 46.1171 41.052ZM55.1499 58.652C58.1199 57.442 60.4079 55.528 60.4079 54.406C60.4079 53.482 59.3299 49.786 59.1319 49.06L61.5959 48.092C62.2999 50.138 62.7399 52.624 62.7399 54.406C62.7399 57.376 60.1659 59.906 56.4919 61.424L55.1499 58.652ZM76.2863 55C74.9663 55 73.9983 54.516 73.1843 53.548C72.4363 54.274 71.1823 55.11 69.2023 55.11C66.5403 55.11 64.6923 53.746 64.1643 53.35L65.3523 51.04C65.8363 51.304 67.0903 52.008 68.8723 52.008C70.3023 52.008 71.2703 51.59 71.8863 51.194L68.8723 44.308L71.1383 43.076L74.1523 50.204C74.6363 51.392 75.1423 51.722 76.2863 51.722H76.5503L76.7263 53.372L76.5503 55H76.2863ZM76.331 55V51.722H77.497C79.675 51.722 80.467 51.216 80.467 50.314C80.467 49.588 79.477 46.97 79.279 46.508L81.589 45.232C82.007 46.134 82.931 48.752 82.909 50.49C82.909 53.46 80.951 55 77.497 55H76.331ZM76.001 58.762C76.705 58.08 77.365 57.398 78.047 56.738C78.729 57.398 79.389 58.08 80.071 58.762L78.047 60.786C77.365 60.104 76.705 59.444 76.001 58.762ZM88.7515 58.652C91.7215 57.442 94.0095 55.528 94.0095 54.406C94.0095 53.482 92.9315 49.786 92.7335 49.06L95.1975 48.092C95.9015 50.138 96.3415 52.624 96.3415 54.406C96.3415 57.376 93.7675 59.906 90.0935 61.424L88.7515 58.652ZM91.5675 44.066C92.2715 43.384 92.9315 42.702 93.6135 42.042C94.2955 42.702 94.9555 43.384 95.6375 44.066L93.6135 46.09C92.9315 45.408 92.2715 44.748 91.5675 44.066ZM97.9638 58.586C101.99 57.706 104.19 56.628 104.872 54.956C102.43 55.308 99.7458 54.714 98.8438 52.8C97.5678 50.072 99.6138 45.386 102.628 45.386C105.378 45.386 107.336 49.368 107.336 53.372C107.336 57.508 104.168 60.434 98.9758 61.424L97.9638 58.586ZM100.868 50.952C101.418 51.656 103.178 51.964 104.916 51.832C104.542 50.05 103.684 48.532 102.584 48.334C101.286 48.07 100.296 50.204 100.868 50.952ZM107.572 58.652C110.542 57.442 112.83 55.528 112.83 54.406C112.83 53.482 111.752 49.786 111.554 49.06L114.018 48.092C114.722 50.138 115.162 52.624 115.162 54.406C115.162 57.376 112.588 59.906 108.914 61.424L107.572 58.652ZM128.082 55C127.598 55 127.18 54.912 126.784 54.736C126.608 57.574 124.1 59.972 120.558 61.424L119.216 58.652C122.186 57.442 124.474 55.528 124.474 54.406C124.474 53.482 123.396 49.786 123.198 49.06L125.662 48.092C125.882 48.708 126.058 49.368 126.234 50.05C126.608 51.26 127.136 51.722 128.082 51.722H128.28L128.456 53.372L128.28 55H128.082ZM128.109 55V51.722H128.461C129.033 51.722 129.561 51.722 130.067 51.7C129.517 50.886 129.275 49.984 129.495 48.972C129.693 48.004 130.067 47.124 130.551 46.376C130.331 46.332 130.089 46.266 129.869 46.2L131.079 43.164C142.167 46.552 143.047 49.016 141.903 52.646C141.111 55.132 137.217 55.44 133.983 54.34C132.575 54.802 130.771 55 128.461 55H128.109ZM131.783 49.236C131.761 50.006 132.597 50.688 133.719 51.194C134.841 50.842 135.413 50.314 135.523 49.588C135.633 48.796 135.149 47.96 134.423 47.586L133.895 47.41C132.949 47.256 131.827 48.158 131.783 49.236ZM136.887 52.03C138.339 52.206 139.593 52.03 139.835 51.348C140.121 50.578 139.307 49.742 137.591 48.884C137.613 49.236 137.591 49.588 137.547 49.94C137.415 50.754 137.195 51.458 136.887 52.03Z" fill="#1F74C9"/>
</svg>
