<svg width="100" height="36" viewBox="0 0 100 36" fill="none" xmlns="http://www.w3.org/2000/svg">
<path d="M91.6923 29.6923H79.0769C75.0769 29.6923 71.8975 26.5128 71.8975 22.5128V9.89744C71.8975 5.89744 75.0769 2.71796 79.0769 2.71796H91.6923C95.6923 2.71796 98.8718 5.89744 98.8718 9.89744V22.5128C98.8718 26.4103 95.5898 29.6923 91.6923 29.6923Z" fill="#D72685"/>
<path d="M91.4875 14.9231C94.0365 14.9231 96.1028 12.8567 96.1028 10.3077C96.1028 7.7587 94.0365 5.69232 91.4875 5.69232C88.9384 5.69232 86.8721 7.7587 86.8721 10.3077C86.8721 12.8567 88.9384 14.9231 91.4875 14.9231Z" fill="#E3EEC6"/>
<path d="M91.4875 26.5128C94.0365 26.5128 96.1028 24.4464 96.1028 21.8974C96.1028 19.3484 94.0365 17.282 91.4875 17.282C88.9384 17.282 86.8721 19.3484 86.8721 21.8974C86.8721 24.4464 88.9384 26.5128 91.4875 26.5128Z" fill="#C7E9F4"/>
<path d="M79.4875 14.9231C82.0365 14.9231 84.1028 12.8567 84.1028 10.3077C84.1028 7.7587 82.0365 5.69232 79.4875 5.69232C76.9384 5.69232 74.8721 7.7587 74.8721 10.3077C74.8721 12.8567 76.9384 14.9231 79.4875 14.9231Z" fill="#FDD7CA"/>
<path d="M79.4875 26.5128C82.0365 26.5128 84.1028 24.4464 84.1028 21.8974C84.1028 19.3484 82.0365 17.282 79.4875 17.282C76.9384 17.282 74.8721 19.3484 74.8721 21.8974C74.8721 24.4464 76.9384 26.5128 79.4875 26.5128Z" fill="#FFF9B8"/>
<path d="M63.3845 15.5385C64.9705 15.5385 66.2563 14.2527 66.2563 12.6667C66.2563 11.0806 64.9705 9.79486 63.3845 9.79486C61.7984 9.79486 60.5127 11.0806 60.5127 12.6667C60.5127 14.2527 61.7984 15.5385 63.3845 15.5385Z" fill="#D72685"/>
<path d="M63.3845 8.46155C64.9705 8.46155 66.2563 7.1758 66.2563 5.58975C66.2563 4.0037 64.9705 2.71796 63.3845 2.71796C61.7984 2.71796 60.5127 4.0037 60.5127 5.58975C60.5127 7.1758 61.7984 8.46155 63.3845 8.46155Z" fill="#D72685"/>
<path d="M56.2048 8.46155C57.7908 8.46155 59.0766 7.1758 59.0766 5.58975C59.0766 4.0037 57.7908 2.71796 56.2048 2.71796C54.6188 2.71796 53.333 4.0037 53.333 5.58975C53.333 7.1758 54.6188 8.46155 56.2048 8.46155Z" fill="#D72685"/>
<path d="M3.99973 15.5385C5.58577 15.5385 6.87152 14.2527 6.87152 12.6667C6.87152 11.0806 5.58577 9.79486 3.99973 9.79486C2.41368 9.79486 1.12793 11.0806 1.12793 12.6667C1.12793 14.2527 2.41368 15.5385 3.99973 15.5385Z" fill="#D72685"/>
<path d="M12.5124 29.6923H12.4099C10.8714 29.6923 9.64062 28.4616 9.64062 26.9231V5.48719C9.64062 3.94873 10.8714 2.71796 12.4099 2.71796H12.5124C14.0509 2.71796 15.2817 3.94873 15.2817 5.48719V26.9231C15.2817 28.4616 14.0509 29.6923 12.5124 29.6923Z" fill="#D72685"/>
<path d="M4.10229 33.8974H3.89716C2.3587 33.8974 1.12793 32.6667 1.12793 31.1282V21.0769C1.12793 19.5384 2.3587 18.3077 3.89716 18.3077H4.10229C5.64075 18.3077 6.87152 19.5384 6.87152 21.0769V31.1282C6.87152 32.6667 5.53819 33.8974 4.10229 33.8974Z" fill="#D72685"/>
<path d="M36.6158 19.0256C36.6158 13.8974 32.5133 9.79486 27.3851 9.79486C22.2569 9.79486 18.1543 13.8974 18.1543 19.0256C18.1543 24.1538 22.2569 28.2564 27.3851 28.2564C28.6158 28.2564 29.8466 27.9487 30.9748 27.5384V31.1282C30.9748 32.6667 32.2056 34 33.8466 34C35.4876 34 36.7184 32.7692 36.7184 31.1282V19.7436C36.7184 19.641 36.7184 19.5385 36.7184 19.4359C36.5133 19.3333 36.6158 19.1282 36.6158 19.0256ZM27.3851 22.6154C25.4363 22.6154 23.7953 21.0769 23.7953 19.0256C23.7953 17.0769 25.3338 15.4359 27.3851 15.4359C29.4363 15.4359 30.9748 16.9743 30.9748 19.0256C30.8722 20.9743 29.3338 22.6154 27.3851 22.6154Z" fill="#D72685"/>
<path d="M63.3847 23.9487H49.1283H48.8206C46.9745 23.9487 45.436 22.4102 45.3334 20.6666V19.4359V5.48715C45.3334 3.94869 44.1027 2.61536 42.4616 2.61536C40.9232 2.61536 39.5898 3.94869 39.5898 5.48715V20.6666C39.5898 20.7692 39.5898 20.8718 39.5898 20.9743C39.5898 21.0769 39.5898 21.5897 39.5898 21.6923C40.1027 26.1025 44.2052 29.6923 48.3078 29.6923H48.1027H48.4104C48.5129 29.6923 49.0257 29.6923 49.1283 29.6923H63.3847C64.9232 29.6923 66.2565 28.3589 66.2565 26.8205C66.1539 25.282 64.9232 23.9487 63.3847 23.9487Z" fill="#D72685"/>
</svg>
